<?xml version="1.0" standalone="no"?>
<!DOCTYPE svg PUBLIC "-//W3C//DTD SVG 20010904//EN"
 "http://www.w3.org/TR/2001/REC-SVG-20010904/DTD/svg10.dtd">
<svg version="1.0" xmlns="http://www.w3.org/2000/svg"
 width="3267.000000pt" height="3519.000000pt" viewBox="0 0 3267.000000 3519.000000"
 preserveAspectRatio="xMidYMid meet">

<g transform="translate(0.000000,3519.000000) scale(0.100000,-0.100000)"
fill="#000000" stroke="none">
<path d="M16720 31587 c0 -24 0 -24 -167 -30 -91 -4 -231 -7 -310 -7 l-143 0
0 -25 0 -25 -179 0 c-98 0 -199 -3 -225 -6 -40 -6 -46 -10 -46 -30 l0 -24
-175 0 -175 0 0 -24 c0 -22 -5 -23 -77 -30 -42 -3 -116 -6 -165 -6 -87 0 -88
0 -88 -25 l0 -25 -102 0 c-146 0 -178 -7 -178 -36 0 -24 -1 -24 -115 -24 -114
0 -115 0 -115 -24 0 -20 -6 -24 -46 -30 -26 -3 -78 -6 -115 -6 -67 0 -69 -1
-69 -25 0 -24 -2 -25 -69 -25 -37 0 -89 -3 -115 -6 -40 -6 -46 -10 -46 -30 0
-24 -1 -24 -109 -24 l-110 0 -3 -27 c-3 -28 -3 -28 -90 -31 -86 -3 -88 -3 -88
-27 0 -22 -4 -25 -39 -25 -21 0 -59 -3 -85 -6 -40 -6 -46 -10 -46 -30 0 -23
-2 -24 -85 -24 -83 0 -85 -1 -85 -24 0 -19 -6 -24 -37 -30 -21 -3 -59 -6 -85
-6 -44 0 -48 -2 -48 -25 0 -22 -4 -25 -39 -25 -21 0 -59 -3 -85 -6 -40 -6 -46
-10 -46 -30 0 -23 -3 -24 -79 -24 -79 0 -80 0 -83 -27 -3 -27 -6 -28 -60 -31
-53 -3 -58 -5 -58 -26 0 -20 -6 -24 -46 -30 -26 -3 -64 -6 -85 -6 -35 0 -39
-3 -39 -25 0 -24 -3 -25 -60 -25 -56 0 -60 -1 -60 -24 0 -19 -6 -24 -37 -30
-21 -3 -57 -6 -80 -6 -39 0 -43 -2 -43 -24 0 -22 -5 -25 -60 -31 -55 -6 -60
-9 -60 -31 0 -22 -4 -24 -54 -24 -52 0 -55 -1 -58 -27 -3 -27 -6 -28 -60 -31
-53 -3 -58 -5 -58 -26 0 -20 -6 -24 -46 -30 -26 -3 -62 -6 -80 -6 -29 0 -34
-3 -34 -24 0 -21 -5 -24 -60 -30 -55 -6 -60 -9 -60 -31 0 -23 -3 -25 -54 -25
-52 0 -55 -1 -58 -27 -3 -26 -7 -28 -55 -31 -48 -3 -53 -5 -53 -26 0 -21 -6
-24 -60 -30 -55 -6 -60 -9 -60 -31 0 -21 -5 -25 -30 -25 -25 0 -30 -4 -30 -24
0 -22 -5 -25 -55 -31 -49 -7 -55 -10 -55 -31 0 -21 -5 -23 -57 -26 -55 -3 -58
-4 -61 -30 -3 -27 -6 -28 -58 -28 -53 0 -54 0 -54 -30 0 -30 -1 -30 -55 -30
-52 0 -55 -1 -55 -25 0 -21 -5 -25 -30 -25 -27 0 -30 -3 -30 -30 0 -30 -1 -30
-54 -30 -52 0 -55 -1 -58 -27 -3 -26 -7 -28 -55 -31 -48 -3 -53 -5 -53 -27 0
-19 -6 -24 -32 -27 -28 -2 -34 -8 -36 -30 -3 -27 -6 -28 -58 -28 -53 0 -54 0
-54 -30 0 -30 -1 -30 -55 -30 -54 0 -55 0 -55 -30 0 -27 -3 -30 -30 -30 -25 0
-30 -4 -30 -25 0 -24 -3 -25 -55 -25 -54 0 -55 0 -55 -30 0 -27 -3 -30 -30
-30 -25 0 -30 -4 -30 -24 0 -22 -5 -25 -55 -31 -49 -7 -55 -10 -55 -31 0 -20
-5 -24 -30 -24 -27 0 -30 -3 -30 -30 0 -30 -1 -30 -55 -30 -54 0 -55 0 -55
-30 0 -27 -3 -30 -30 -30 -25 0 -30 -4 -30 -25 0 -21 -5 -25 -30 -25 -25 0
-30 -4 -30 -24 0 -22 -5 -25 -55 -31 -52 -7 -55 -9 -55 -36 0 -26 -4 -29 -30
-29 -25 0 -30 -4 -30 -24 0 -21 -6 -25 -49 -31 -41 -5 -50 -11 -53 -28 -2 -15
-11 -23 -30 -25 -21 -3 -27 -9 -30 -30 -2 -21 -9 -28 -30 -30 -22 -3 -28 -9
-28 -28 0 -20 -5 -24 -30 -24 -25 0 -30 -4 -30 -24 0 -22 -5 -25 -55 -31 -52
-7 -55 -9 -55 -36 0 -26 -4 -29 -30 -29 -25 0 -30 -4 -30 -25 0 -21 -5 -25
-30 -25 -27 0 -30 -3 -30 -30 0 -27 -3 -30 -30 -30 -25 0 -30 -4 -30 -24 0
-21 -6 -25 -50 -31 -44 -6 -50 -10 -50 -31 0 -20 -5 -24 -30 -24 -27 0 -30 -3
-30 -30 0 -27 -3 -30 -30 -30 -27 0 -30 -3 -30 -30 0 -27 -3 -30 -30 -30 -25
0 -30 -4 -30 -24 0 -19 -6 -25 -27 -28 -22 -2 -29 -9 -31 -30 -3 -22 -9 -28
-28 -28 -19 0 -24 -5 -24 -24 0 -22 -5 -25 -54 -31 -50 -7 -55 -10 -58 -34 -2
-20 -9 -27 -30 -29 -22 -3 -28 -9 -28 -28 0 -20 -5 -24 -30 -24 -27 0 -30 -3
-30 -30 0 -25 -4 -30 -25 -30 -20 0 -25 -5 -25 -25 0 -21 -5 -25 -30 -25 -27
0 -30 -3 -30 -30 0 -27 -3 -30 -30 -30 -27 0 -30 -3 -30 -30 0 -25 -4 -30 -25
-30 -20 0 -25 -5 -25 -25 0 -21 -5 -25 -30 -25 -27 0 -30 -3 -30 -30 0 -27 -3
-30 -30 -30 -27 0 -30 -3 -30 -30 0 -27 -3 -30 -30 -30 -25 0 -30 -4 -30 -25
0 -20 -5 -25 -25 -25 -21 0 -25 -5 -25 -30 0 -27 -3 -30 -30 -30 -27 0 -30 -3
-30 -30 0 -27 -3 -30 -30 -30 -25 0 -30 -4 -30 -25 0 -20 -5 -25 -25 -25 -21
0 -25 -5 -25 -30 0 -27 -3 -30 -30 -30 -27 0 -30 -3 -30 -30 0 -25 -4 -30 -24
-30 -19 0 -25 -6 -28 -27 -2 -22 -9 -29 -30 -31 -21 -3 -27 -9 -30 -30 -2 -21
-9 -28 -30 -30 -22 -3 -28 -9 -28 -28 0 -19 -5 -24 -24 -24 -21 0 -24 -6 -31
-55 -6 -50 -9 -55 -31 -55 -20 0 -24 -5 -24 -30 0 -27 -3 -30 -30 -30 -27 0
-30 -3 -30 -30 0 -25 -4 -30 -24 -30 -19 0 -25 -6 -28 -27 -2 -22 -9 -29 -30
-31 -22 -3 -28 -9 -28 -28 0 -20 -5 -24 -30 -24 -30 0 -30 -1 -30 -54 0 -52
-1 -55 -27 -58 -22 -2 -29 -9 -31 -30 -3 -22 -9 -28 -28 -28 -20 0 -24 -5 -24
-30 0 -27 -3 -30 -30 -30 -30 0 -30 -1 -30 -55 0 -54 0 -55 -30 -55 -27 0 -30
-3 -30 -30 0 -25 -4 -30 -25 -30 -24 0 -25 -3 -25 -55 0 -52 2 -55 24 -55 19
0 25 -6 28 -27 2 -22 9 -29 31 -31 21 -3 27 -9 27 -27 0 -18 6 -24 28 -27 21
-2 28 -9 30 -30 3 -22 9 -28 27 -28 18 0 24 -6 27 -27 2 -22 9 -29 31 -31 21
-3 27 -9 27 -27 0 -18 6 -24 28 -27 21 -2 28 -9 30 -30 3 -22 9 -28 27 -28 18
0 24 -6 27 -27 2 -22 9 -29 31 -31 21 -3 27 -9 27 -27 0 -18 6 -24 28 -27 21
-2 28 -9 30 -30 3 -22 9 -28 27 -28 18 0 24 -6 27 -27 2 -22 9 -29 30 -31 21
-3 27 -9 30 -30 2 -21 9 -28 31 -30 21 -3 27 -9 27 -28 0 -19 5 -24 24 -24 19
0 25 -6 28 -27 2 -22 9 -29 30 -31 21 -3 27 -9 30 -30 2 -21 9 -28 31 -30 21
-3 27 -9 27 -28 0 -19 5 -24 24 -24 19 0 25 -6 28 -27 2 -22 9 -29 30 -31 21
-3 27 -9 30 -30 2 -21 9 -28 31 -30 21 -3 27 -9 27 -28 0 -19 5 -24 25 -24 21
0 25 -5 25 -30 0 -27 3 -30 29 -30 25 0 30 -4 33 -27 2 -22 9 -29 31 -31 21
-3 27 -9 27 -28 0 -19 5 -24 24 -24 19 0 25 -6 28 -27 2 -22 9 -29 30 -31 21
-3 27 -9 30 -30 2 -21 9 -28 31 -30 21 -3 27 -9 27 -27 0 -18 6 -24 28 -27 21
-2 28 -9 30 -30 3 -22 9 -28 27 -28 18 0 24 -6 27 -27 2 -22 9 -29 31 -31 21
-3 27 -9 27 -27 0 -18 6 -24 28 -27 21 -2 28 -9 30 -30 3 -22 9 -28 27 -28 18
0 24 -6 27 -27 2 -22 9 -29 31 -31 21 -3 27 -9 27 -27 0 -18 6 -24 28 -27 21
-2 28 -9 30 -30 3 -22 9 -28 27 -28 18 0 24 -6 27 -27 2 -22 9 -29 31 -31 21
-3 27 -9 27 -27 0 -18 6 -24 28 -27 21 -2 28 -9 30 -30 3 -22 9 -28 27 -28 18
0 24 -6 27 -27 2 -22 9 -29 31 -31 21 -3 27 -9 27 -27 0 -18 6 -24 28 -27 21
-2 28 -9 30 -30 3 -22 9 -28 27 -28 18 0 24 -6 27 -27 2 -22 9 -29 30 -31 21
-3 27 -9 30 -30 2 -21 9 -28 31 -30 21 -3 27 -9 27 -28 0 -19 5 -24 24 -24 19
0 25 -6 28 -27 2 -22 9 -29 31 -31 21 -3 27 -9 27 -28 0 -19 5 -24 24 -24 19
0 25 6 28 28 2 21 9 28 31 30 21 3 27 9 27 28 0 20 5 24 30 24 27 0 30 3 30
30 0 25 4 30 24 30 21 0 24 6 31 55 6 50 9 55 31 55 20 0 24 5 24 30 0 27 3
30 30 30 27 0 30 3 30 30 0 25 4 30 25 30 20 0 25 5 25 25 0 21 5 25 29 25 27
0 29 3 36 55 6 50 9 55 31 55 20 0 24 5 24 30 0 27 3 30 30 30 27 0 30 3 30
30 0 25 4 30 24 30 19 0 25 6 28 28 2 21 9 28 31 30 21 3 27 9 27 28 0 20 5
24 30 24 27 0 30 3 30 30 0 25 4 30 25 30 21 0 25 5 25 30 0 27 3 30 30 30 25
0 30 4 30 25 0 21 5 25 30 25 27 0 30 3 30 30 0 25 4 30 25 30 21 0 25 5 25
30 0 27 3 30 29 30 25 0 30 4 33 28 2 21 9 28 31 30 25 3 27 6 27 52 l0 49 55
6 c49 7 55 10 55 31 0 20 5 24 30 24 27 0 30 3 30 30 0 25 4 30 24 30 19 0 25
6 28 28 2 21 9 28 31 30 21 3 27 9 27 28 0 20 5 24 30 24 27 0 30 3 30 30 0
27 3 30 30 30 27 0 30 3 30 30 0 25 4 30 25 30 20 0 25 5 25 25 0 21 5 25 30
25 27 0 30 3 30 30 0 27 3 30 30 30 25 0 30 4 30 24 0 19 6 25 28 28 21 2 28
9 30 30 3 21 9 27 30 30 19 2 28 10 30 25 3 19 12 24 53 29 46 6 49 8 49 35 0
26 4 29 30 29 25 0 30 4 30 24 0 19 6 25 28 28 21 2 28 9 30 31 3 23 8 27 33
27 24 0 29 4 29 24 0 21 6 25 49 31 44 6 50 10 53 33 2 21 9 28 31 30 21 3 27
9 27 28 0 20 5 24 29 24 25 0 30 4 33 28 2 21 9 28 31 30 21 3 27 9 27 27 0
20 6 23 55 30 50 6 55 9 55 31 0 20 5 24 30 24 27 0 30 3 30 30 0 30 1 30 54
30 52 0 55 1 58 28 2 21 9 28 31 30 21 3 27 9 27 28 0 22 3 24 55 24 54 0 55
0 55 30 0 27 3 30 30 30 25 0 30 4 30 24 0 22 5 25 55 31 49 7 55 10 55 31 0
20 5 24 30 24 27 0 30 3 30 30 0 30 1 30 54 30 52 0 55 1 58 28 2 21 9 28 31
30 21 3 27 9 27 28 0 22 3 24 54 24 52 0 55 1 58 28 3 26 6 27 61 30 56 3 57
4 57 32 0 30 1 30 55 30 52 0 55 1 55 25 0 21 5 25 30 25 27 0 30 3 30 30 0
30 1 30 55 30 51 0 55 2 55 24 0 22 5 25 60 31 55 6 60 9 60 31 0 22 4 24 55
24 54 0 55 0 55 30 0 30 1 30 55 30 51 0 55 2 55 24 0 22 5 25 60 31 55 6 60
9 60 31 0 22 4 24 43 24 23 0 59 3 80 6 31 6 37 11 37 30 0 23 4 24 60 24 l60
0 0 30 c0 30 1 30 55 30 52 0 55 1 55 25 0 23 4 25 48 25 26 0 64 3 85 6 31 6
37 11 37 30 0 23 4 24 60 24 56 0 60 1 60 24 0 19 6 24 38 30 20 3 58 6 85 6
43 0 47 2 47 25 0 23 4 25 43 25 79 0 116 11 119 34 3 19 10 21 85 24 81 3 82
3 85 30 3 27 4 27 91 30 85 3 87 3 87 27 0 22 4 25 39 25 21 0 59 3 85 6 40 6
46 10 46 30 0 24 1 24 109 24 l110 0 3 28 3 27 113 3 c112 3 112 3 112 27 0
24 2 25 69 25 37 0 89 3 115 6 40 6 46 10 46 30 l0 24 140 0 140 0 0 24 c0 20
6 24 46 30 26 3 102 6 170 6 l124 0 0 25 c0 24 2 25 73 25 39 0 129 3 200 7
125 6 127 7 127 30 l0 23 303 0 c333 0 377 4 377 30 0 15 16 18 128 23 70 4
269 7 442 7 173 0 372 -3 443 -7 111 -5 127 -8 127 -23 0 -26 44 -30 378 -30
l302 0 0 -23 c0 -23 2 -24 128 -30 70 -4 160 -7 200 -7 70 0 72 -1 72 -25 l0
-25 124 0 c68 0 144 -3 170 -6 40 -6 46 -10 46 -30 l0 -24 143 -1 c78 -1 134
-3 125 -6 -17 -4 -18 -41 -18 -594 0 -387 3 -589 10 -589 6 0 115 -18 243 -39
1567 -267 3016 -823 4212 -1616 400 -266 718 -519 1013 -810 l183 -180 -1987
-1129 c-1093 -621 -1995 -1131 -2005 -1133 -13 -4 -50 25 -126 99 -326 316
-705 576 -1148 789 -117 56 -378 169 -391 169 -2 0 -4 -706 -4 -1570 l0 -1570
23 -5 c12 -3 133 -30 270 -60 1743 -386 3177 -986 4232 -1772 443 -330 858
-730 1162 -1120 804 -1032 1146 -2286 957 -3508 -170 -1106 -783 -2099 -1774
-2876 -980 -768 -2319 -1313 -3926 -1599 -243 -43 -633 -101 -799 -120 -55 -6
-110 -13 -122 -15 l-23 -5 0 -545 0 -545 -2010 0 -2010 0 0 569 0 569 -97 17
c-1022 180 -2046 500 -3045 951 -241 109 -776 379 -1008 509 -964 539 -1858
1183 -2525 1819 -66 63 -117 117 -114 120 3 4 890 508 1970 1122 1080 614
1967 1119 1972 1123 4 4 -5 19 -20 33 l-28 27 -175 -98 c-96 -54 -292 -162
-435 -241 -143 -78 -363 -200 -490 -270 -126 -70 -473 -261 -770 -425 -297
-164 -643 -355 -770 -425 -126 -70 -511 -283 -855 -472 -344 -190 -662 -366
-707 -391 -68 -37 -87 -44 -115 -38 -28 6 -33 11 -36 39 -3 26 -8 32 -27 32
-21 0 -24 6 -30 55 -7 49 -10 55 -31 55 -22 0 -24 4 -24 55 0 54 0 55 -30 55
-30 0 -30 1 -30 54 0 52 -1 55 -27 58 -22 2 -29 9 -31 31 -3 21 -9 27 -28 27
-23 0 -24 3 -24 60 l0 60 -30 0 c-30 0 -30 1 -30 55 0 51 -2 55 -24 55 -21 0
-24 6 -31 55 -6 49 -9 55 -30 55 -22 0 -24 4 -27 58 -3 54 -4 57 -30 60 -27 3
-28 6 -28 58 0 50 -2 54 -24 54 -22 0 -25 5 -31 60 -6 55 -9 60 -31 60 -22 0
-24 4 -24 43 0 23 -3 59 -6 80 -6 31 -11 37 -30 37 -23 0 -24 4 -24 60 0 57
-1 60 -24 60 -22 0 -25 5 -31 55 -7 49 -10 55 -31 55 -22 0 -24 4 -24 48 0 26
-3 64 -6 85 -6 31 -11 37 -30 37 -23 0 -24 4 -24 60 0 56 -1 60 -24 60 -19 0
-24 6 -30 38 -3 20 -6 58 -6 85 0 43 -2 47 -25 47 -24 0 -24 2 -27 83 -3 81
-3 82 -31 85 l-27 3 0 85 c0 82 -1 84 -24 84 -19 0 -24 6 -30 38 -3 20 -6 58
-6 85 0 43 -2 47 -25 47 -24 0 -25 2 -25 73 0 115 -8 147 -36 147 -24 0 -24 1
-24 115 l0 115 -30 0 -30 0 0 115 c0 114 0 115 -24 115 -22 0 -23 4 -30 92 -3
50 -6 113 -6 140 0 45 -2 48 -25 48 l-25 0 0 140 0 140 -24 0 c-20 0 -24 6
-30 46 -3 26 -6 116 -6 200 l0 154 -23 0 c-23 0 -24 2 -30 128 -4 70 -7 173
-7 230 l0 102 -25 0 -25 0 0 819 0 820 -27 3 c-22 2 -29 9 -31 31 -3 21 -9 27
-27 27 -18 0 -24 6 -27 28 -2 21 -9 28 -30 30 -22 3 -28 9 -28 27 0 18 -6 24
-27 27 -22 2 -29 9 -31 31 -3 21 -9 27 -27 27 -18 0 -24 6 -27 28 -2 21 -9 28
-30 30 -22 3 -28 9 -28 27 0 18 -6 24 -27 27 -22 2 -29 9 -31 31 -3 21 -9 27
-27 27 -18 0 -24 6 -27 28 -2 21 -9 28 -30 30 -22 3 -28 9 -28 27 0 18 -6 24
-27 27 -22 2 -29 9 -31 31 -3 21 -9 27 -27 27 -18 0 -24 6 -27 28 -2 21 -9 28
-30 30 -21 3 -27 9 -30 30 -2 21 -9 28 -30 30 -22 3 -28 9 -28 28 0 19 -5 24
-24 24 -19 0 -25 6 -28 28 -2 21 -9 28 -30 30 -21 3 -27 9 -30 30 -2 21 -9 28
-30 30 -22 3 -28 9 -28 27 0 18 -6 24 -27 27 -22 2 -29 9 -31 31 -3 21 -9 27
-27 27 -18 0 -24 6 -27 28 -2 21 -9 28 -30 30 -22 3 -28 9 -28 27 0 18 -6 24
-27 27 -22 2 -29 9 -31 31 -3 21 -9 27 -27 27 -18 0 -24 6 -27 28 -2 21 -9 28
-30 30 -22 3 -28 9 -28 27 0 18 -6 24 -27 27 -22 2 -29 9 -31 31 -3 21 -9 27
-27 27 -18 0 -24 6 -27 28 -2 21 -9 28 -30 30 -22 3 -28 9 -28 27 0 18 -6 24
-27 27 -22 2 -29 9 -31 31 -3 21 -9 27 -27 27 -18 0 -24 6 -27 28 -2 21 -9 28
-30 30 -22 3 -28 9 -28 27 0 18 -6 24 -27 27 -22 2 -29 9 -31 31 -3 21 -9 27
-27 27 -18 0 -24 6 -27 28 -2 21 -9 28 -30 30 -22 3 -28 9 -28 27 0 18 -6 24
-27 27 -22 2 -29 9 -31 31 -3 21 -9 27 -27 27 -18 0 -24 6 -27 28 -2 21 -9 28
-30 30 -22 3 -28 9 -28 27 0 18 -6 24 -27 27 -22 2 -29 9 -31 31 -3 21 -9 27
-27 27 -18 0 -24 6 -27 28 -2 21 -9 28 -30 30 -22 3 -28 9 -28 27 0 18 -6 24
-27 27 -22 2 -29 9 -31 31 -3 21 -9 27 -27 27 -18 0 -24 6 -27 28 -2 21 -9 28
-30 30 -21 3 -27 9 -30 30 -2 21 -9 28 -30 30 -22 3 -28 9 -28 28 0 19 -5 24
-24 24 -19 0 -25 6 -28 28 -2 21 -9 28 -30 30 -21 3 -27 9 -30 30 -2 21 -9 28
-31 30 -21 3 -27 9 -27 27 0 18 -6 24 -28 27 -21 2 -28 9 -30 31 -3 21 -9 27
-27 27 -18 0 -24 6 -27 28 -2 21 -9 28 -30 30 -22 3 -28 9 -28 27 0 18 -6 24
-28 27 -21 2 -28 9 -30 31 -3 21 -9 27 -27 27 -18 0 -24 6 -27 28 -2 21 -9 28
-31 30 -21 3 -27 9 -27 27 0 18 -6 24 -28 27 -21 2 -28 9 -30 31 -3 21 -9 27
-28 27 -19 0 -24 -5 -24 -25 0 -21 -5 -25 -30 -25 l-30 0 0 -90 c0 -89 0 -90
-25 -90 -24 0 -25 -2 -25 -69 0 -37 -3 -89 -6 -115 -6 -40 -10 -46 -30 -46
-24 0 -24 -1 -24 -110 l0 -110 -30 0 -30 0 0 -145 0 -145 -25 0 c-24 0 -25 -3
-25 -57 0 -32 -3 -95 -7 -140 -6 -79 -7 -83 -29 -83 -24 0 -24 0 -24 -132 0
-177 -6 -208 -36 -208 l-24 0 0 -225 0 -225 -24 0 c-22 0 -23 -4 -30 -92 -3
-50 -6 -178 -6 -285 l0 -193 -24 0 -24 0 -4 -512 c-1 -282 -1 -755 0 -1050 l4
-538 24 0 24 0 0 -237 c0 -283 5 -343 30 -343 26 0 30 -38 30 -251 l0 -189 24
0 c21 0 24 -6 30 -52 3 -29 6 -108 6 -175 l0 -123 25 0 c25 0 25 0 25 -94 0
-51 3 -114 6 -140 6 -40 10 -46 30 -46 l24 0 0 -145 0 -145 24 0 c29 0 36 -32
36 -172 0 -98 0 -98 25 -98 22 0 25 -4 25 -38 0 -22 3 -73 6 -115 7 -72 8 -77
30 -77 23 0 24 -2 24 -90 0 -88 1 -90 24 -90 28 0 36 -32 36 -147 0 -71 1 -73
25 -73 23 0 25 -4 25 -44 0 -24 3 -64 6 -90 6 -40 10 -46 30 -46 23 0 24 -2
24 -85 0 -83 1 -85 24 -85 28 0 36 -32 36 -147 0 -70 1 -73 24 -73 22 0 25 -5
31 -60 6 -55 9 -60 31 -60 23 0 24 -2 24 -85 0 -83 1 -85 24 -85 19 0 24 -6
30 -37 3 -21 6 -57 6 -80 0 -38 3 -43 24 -43 21 0 24 -6 30 -52 3 -29 6 -68 6
-85 0 -28 3 -33 25 -33 24 0 25 -3 25 -60 l0 -60 30 0 30 0 0 -85 c0 -83 0
-85 24 -85 22 0 25 -5 31 -55 7 -49 10 -55 31 -55 23 0 24 -3 24 -60 l0 -60
30 0 30 0 0 -79 c0 -79 0 -80 28 -83 26 -3 27 -6 30 -60 3 -54 5 -58 27 -58
24 0 25 -3 25 -55 0 -54 0 -55 30 -55 l30 0 0 -60 c0 -57 1 -60 24 -60 22 0
25 -5 31 -55 7 -49 10 -55 31 -55 22 0 24 -4 24 -55 0 -54 0 -55 30 -55 l30 0
0 -60 0 -60 30 0 c30 0 30 -1 30 -55 0 -51 2 -55 24 -55 21 0 24 -6 31 -55 6
-50 9 -55 31 -55 21 0 24 -5 24 -35 0 -30 3 -35 24 -35 22 0 25 -5 31 -55 7
-49 10 -55 31 -55 21 0 23 -5 26 -53 3 -48 5 -52 30 -55 27 -3 28 -6 28 -58 0
-53 0 -54 30 -54 27 0 30 -3 30 -30 0 -25 4 -30 24 -30 21 0 24 -6 31 -55 6
-50 9 -55 31 -55 22 0 24 -3 24 -54 0 -52 1 -55 28 -58 22 -2 28 -8 30 -35 3
-27 8 -33 27 -33 21 0 24 -6 30 -55 7 -49 10 -55 31 -55 20 0 24 -5 24 -30 0
-25 4 -30 24 -30 22 0 25 -5 31 -55 7 -49 10 -55 30 -55 18 0 24 -6 27 -27 2
-22 9 -29 31 -31 26 -3 27 -6 27 -58 0 -53 0 -54 30 -54 27 0 30 -3 30 -30 0
-25 4 -30 24 -30 22 0 25 -5 31 -55 7 -49 10 -55 31 -55 20 0 24 -5 24 -30 0
-27 3 -30 30 -30 30 0 30 -1 30 -55 0 -54 0 -55 30 -55 27 0 30 -3 30 -30 0
-25 4 -30 24 -30 19 0 25 -6 28 -27 2 -20 9 -29 25 -31 19 -3 24 -12 29 -52 6
-43 9 -49 33 -52 20 -2 27 -9 29 -30 3 -22 9 -28 28 -28 20 0 24 -5 24 -30 0
-27 3 -30 30 -30 30 0 30 -1 30 -55 0 -54 0 -55 30 -55 27 0 30 -3 30 -30 0
-25 4 -30 24 -30 19 0 25 -6 28 -27 2 -22 9 -29 30 -31 24 -3 28 -8 28 -33 0
-24 4 -29 24 -29 21 0 25 -6 31 -49 6 -44 10 -50 33 -53 21 -2 28 -9 30 -30 3
-22 9 -28 28 -28 20 0 24 -5 24 -30 0 -27 3 -30 30 -30 27 0 30 -3 30 -30 0
-25 4 -30 24 -30 19 0 25 -6 28 -27 2 -22 9 -29 31 -31 23 -3 27 -8 27 -33 0
-24 4 -29 25 -29 22 0 25 -5 31 -49 6 -44 9 -50 33 -53 20 -2 27 -9 29 -30 3
-22 9 -28 27 -28 18 0 24 -6 27 -27 2 -22 9 -29 30 -31 22 -3 28 -9 28 -28 0
-19 5 -24 25 -24 21 0 25 -5 25 -30 0 -27 3 -30 30 -30 27 0 30 -3 30 -30 0
-27 3 -30 30 -30 25 0 30 -4 30 -25 0 -20 5 -25 25 -25 21 0 25 -5 25 -30 0
-27 3 -30 30 -30 27 0 30 -3 30 -30 0 -27 3 -30 30 -30 27 0 30 -3 30 -31 0
-31 1 -31 38 -25 20 3 45 6 55 6 11 0 17 8 17 25 0 21 5 25 30 25 27 0 30 3
30 30 0 25 4 30 24 30 19 0 25 6 28 28 2 21 9 28 31 30 21 3 27 9 27 28 0 20
5 24 30 24 27 0 30 3 30 30 0 27 3 30 30 30 27 0 30 3 30 30 0 25 4 30 25 30
20 0 25 5 25 25 0 21 5 25 30 25 27 0 30 3 30 30 0 27 3 30 30 30 27 0 30 3
30 30 0 25 4 30 25 30 20 0 25 5 25 25 0 21 5 25 30 25 27 0 30 3 30 30 0 27
3 30 30 30 27 0 30 3 30 30 0 25 4 30 25 30 20 0 25 5 25 25 0 21 5 25 30 25
27 0 30 3 30 30 0 27 3 30 30 30 27 0 30 3 30 30 0 25 4 30 25 30 20 0 25 5
25 25 0 21 5 25 30 25 27 0 30 3 30 30 0 27 3 30 30 30 27 0 30 3 30 30 0 25
4 30 25 30 20 0 25 5 25 25 0 21 5 25 30 25 27 0 30 3 30 30 0 27 3 30 30 30
27 0 30 3 30 30 0 25 4 30 25 30 20 0 25 5 25 25 0 21 5 25 30 25 27 0 30 3
30 30 0 27 3 30 30 30 27 0 30 3 30 30 0 25 4 30 25 30 20 0 25 5 25 25 0 21
5 25 30 25 27 0 30 3 30 30 0 27 3 30 30 30 27 0 30 3 30 30 0 27 3 30 30 30
25 0 30 4 30 25 0 20 5 25 25 25 21 0 25 5 25 30 0 27 3 30 30 30 27 0 30 3
30 30 0 27 3 30 30 30 25 0 30 4 30 25 0 20 5 25 25 25 21 0 25 5 25 30 0 27
3 30 30 30 27 0 30 3 30 30 0 27 3 30 30 30 27 0 30 3 30 30 0 25 4 30 25 30
20 0 25 5 25 25 0 21 5 25 30 25 27 0 30 3 30 30 0 27 3 30 30 30 27 0 30 3
30 30 0 25 4 30 25 30 20 0 25 5 25 25 0 21 5 25 30 25 27 0 30 3 30 30 0 27
3 30 30 30 27 0 30 3 30 30 0 25 4 30 25 30 20 0 25 5 25 25 0 21 5 25 30 25
27 0 30 3 30 30 0 27 3 30 30 30 33 0 35 6 24 72 -6 32 -11 38 -30 38 -20 0
-24 5 -24 30 0 27 -3 30 -30 30 -25 0 -30 4 -30 24 0 19 -6 25 -27 28 -22 2
-29 9 -31 31 -3 21 -9 27 -28 27 -20 0 -24 5 -24 30 0 27 -3 30 -30 30 -27 0
-30 3 -30 30 0 27 -3 30 -30 30 -25 0 -30 4 -30 25 0 20 -5 25 -25 25 -21 0
-25 5 -25 30 0 27 -3 30 -30 30 -27 0 -30 3 -30 30 0 25 -4 30 -24 30 -19 0
-25 6 -28 28 -2 21 -9 28 -29 30 -24 3 -27 9 -33 52 -5 40 -10 49 -29 52 -15
2 -23 11 -25 30 -3 21 -9 27 -30 30 -21 2 -28 9 -30 31 -3 21 -9 27 -28 27
-20 0 -24 5 -24 30 0 27 -3 30 -30 30 -30 0 -30 1 -30 55 0 54 0 55 -30 55
-27 0 -30 3 -30 30 0 25 -4 30 -24 30 -19 0 -25 6 -28 28 -2 21 -9 28 -30 30
-24 3 -28 8 -28 33 0 24 -4 29 -24 29 -21 0 -25 6 -31 50 -6 44 -10 50 -31 50
-20 0 -24 5 -24 30 0 27 -3 30 -30 30 -30 0 -30 1 -30 55 0 54 0 55 -30 55
-27 0 -30 3 -30 30 0 25 -4 30 -24 30 -21 0 -24 6 -31 55 -6 50 -9 55 -31 55
-20 0 -24 5 -24 29 0 25 -4 30 -27 33 -26 3 -28 7 -31 56 -3 48 -5 52 -28 52
-20 0 -24 5 -24 30 0 27 -3 30 -30 30 -28 0 -30 2 -30 41 l0 41 58 -50 c31
-27 68 -62 82 -77 38 -41 293 -270 395 -356 386 -322 859 -667 1315 -959 1516
-971 3166 -1650 4802 -1974 150 -30 296 -58 323 -63 l50 -8 3 -578 2 -577
2180 0 2180 0 0 550 0 549 33 6 c17 3 105 14 195 25 910 114 1828 324 2607
596 1838 644 3151 1727 3723 3071 171 400 270 781 318 1225 23 210 23 647 0
858 -174 1603 -1150 2978 -2821 3977 -999 597 -2294 1079 -3755 1398 -140 30
-265 58 -277 60 l-23 5 0 1470 0 1469 73 -30 c257 -108 590 -289 822 -446 195
-133 312 -227 514 -412 156 -142 177 -159 195 -149 28 15 1448 798 2181 1203
187 103 403 223 480 265 77 43 374 207 660 365 286 158 616 339 732 403 117
65 213 120 213 123 0 14 -397 395 -515 493 -490 408 -1121 812 -1780 1138
-1030 510 -2141 862 -3375 1072 l-195 33 -3 571 -2 572 40 0 c36 0 40 -2 40
-25 0 -25 2 -25 78 -25 120 0 152 -8 152 -36 0 -24 1 -24 110 -24 109 0 110 0
110 -24 0 -20 6 -24 46 -30 26 -3 66 -6 90 -6 40 0 44 -2 44 -25 0 -22 4 -25
39 -25 21 0 59 -3 85 -6 40 -6 46 -10 46 -30 0 -23 2 -24 85 -24 83 0 85 -1
85 -24 0 -19 6 -24 38 -30 20 -3 58 -6 85 -6 43 0 47 -2 47 -25 0 -23 4 -25
43 -25 23 0 59 -3 80 -6 31 -6 37 -11 37 -30 0 -23 4 -24 60 -24 57 0 60 -1
60 -25 0 -22 5 -25 60 -31 55 -6 60 -9 60 -30 0 -21 4 -24 43 -24 23 0 59 -3
80 -6 31 -6 37 -11 37 -30 0 -23 4 -24 60 -24 l60 0 0 -30 c0 -30 1 -30 55
-30 52 0 55 -1 55 -25 0 -22 4 -24 58 -27 54 -3 57 -4 60 -30 3 -27 6 -28 58
-28 51 0 54 -2 54 -25 0 -22 5 -25 60 -31 54 -6 60 -9 60 -30 0 -21 5 -23 53
-26 48 -3 52 -5 55 -30 3 -27 6 -28 58 -28 53 0 54 0 54 -30 0 -30 1 -30 55
-30 51 0 55 -2 55 -24 0 -22 5 -25 60 -31 55 -6 60 -9 60 -31 0 -20 5 -24 30
-24 25 0 30 -4 30 -24 0 -22 5 -25 55 -31 49 -7 55 -10 55 -30 0 -21 6 -24 55
-30 49 -7 55 -10 55 -31 0 -20 5 -24 30 -24 25 0 30 -4 30 -24 0 -22 5 -25 55
-31 48 -6 55 -10 55 -30 0 -20 7 -24 55 -30 50 -6 55 -9 55 -31 0 -20 5 -24
30 -24 27 0 30 -3 30 -30 0 -30 1 -30 54 -30 52 0 55 -1 58 -27 2 -22 9 -29
31 -31 21 -3 27 -9 27 -28 0 -20 5 -24 30 -24 27 0 30 -3 30 -30 0 -30 1 -30
54 -30 52 0 55 -1 58 -27 2 -22 9 -29 31 -31 21 -3 27 -9 27 -28 0 -20 5 -24
30 -24 27 0 30 -3 30 -30 0 -30 1 -30 55 -30 54 0 55 0 55 -30 0 -27 3 -30 30
-30 25 0 30 -4 30 -24 0 -19 6 -25 28 -28 21 -2 28 -9 30 -30 3 -26 6 -28 52
-28 46 0 49 -2 52 -27 2 -22 9 -29 31 -31 21 -3 27 -9 27 -28 0 -20 5 -24 30
-24 27 0 30 -3 30 -30 0 -27 3 -30 30 -30 27 0 30 -3 30 -30 0 -27 3 -30 30
-30 25 0 30 -4 30 -24 0 -21 6 -25 50 -31 44 -6 50 -10 50 -31 0 -20 5 -24 30
-24 27 0 30 -3 30 -30 0 -27 3 -30 29 -30 25 0 30 -4 33 -27 2 -22 9 -29 31
-31 21 -3 27 -9 27 -27 0 -18 6 -24 28 -27 21 -2 28 -9 30 -30 3 -22 9 -28 28
-28 19 0 24 -5 24 -24 0 -19 6 -25 28 -28 21 -2 28 -9 30 -30 3 -21 9 -27 30
-30 21 -2 28 -9 30 -30 3 -22 9 -28 28 -28 19 0 24 -5 24 -24 0 -19 6 -25 28
-28 21 -2 28 -9 30 -30 3 -21 9 -27 30 -30 21 -2 28 -9 30 -30 3 -22 9 -28 27
-28 18 0 24 -6 27 -27 2 -22 9 -29 31 -31 21 -3 27 -9 27 -28 0 -20 5 -24 30
-24 27 0 30 -3 30 -30 0 -25 4 -30 24 -30 19 0 25 -6 28 -27 2 -22 9 -29 31
-31 21 -3 27 -9 27 -28 0 -20 5 -24 30 -24 27 0 30 -3 30 -30 0 -25 4 -30 24
-30 19 0 25 -6 28 -27 2 -22 9 -29 31 -31 21 -3 27 -9 27 -28 0 -20 5 -24 30
-24 27 0 30 -3 30 -30 0 -25 4 -30 24 -30 19 0 25 -6 28 -27 2 -22 9 -29 31
-31 21 -3 27 -9 27 -27 0 -18 6 -24 28 -27 21 -2 28 -9 30 -30 3 -22 9 -28 27
-28 18 0 24 -6 27 -27 2 -22 9 -29 31 -31 21 -3 27 -9 27 -27 0 -18 6 -24 28
-27 21 -2 28 -9 30 -30 3 -21 9 -27 30 -30 21 -2 28 -9 30 -30 3 -22 9 -28 28
-28 19 0 24 -5 24 -24 0 -19 6 -25 28 -28 21 -2 28 -9 30 -30 3 -24 8 -28 33
-28 26 0 29 -3 29 -30 0 -25 4 -30 25 -30 20 0 25 -5 25 -24 0 -19 6 -25 28
-28 21 -2 28 -9 30 -30 3 -21 9 -27 30 -30 21 -2 28 -9 30 -30 3 -22 9 -28 28
-28 19 0 24 -5 24 -24 0 -19 6 -25 28 -28 21 -2 28 -9 30 -30 3 -21 9 -27 30
-30 21 -2 28 -9 30 -30 3 -22 9 -28 28 -28 19 0 24 -5 24 -24 0 -19 6 -25 28
-28 21 -2 28 -9 30 -30 3 -21 9 -27 30 -30 21 -2 28 -9 30 -30 3 -22 9 -28 27
-28 18 0 24 -6 27 -27 2 -22 9 -29 31 -31 21 -3 27 -9 27 -28 0 -20 5 -24 30
-24 27 0 30 -3 30 -30 0 -25 4 -30 24 -30 19 0 25 -6 28 -27 2 -22 9 -29 31
-31 21 -3 27 -9 27 -28 0 -20 5 -24 30 -24 27 0 30 -3 30 -30 0 -25 4 -30 24
-30 19 0 25 -6 28 -27 2 -22 9 -29 31 -31 21 -3 27 -9 27 -28 0 -20 5 -24 30
-24 27 0 30 -3 30 -30 0 -25 4 -30 24 -30 19 0 25 -6 28 -27 2 -22 9 -29 31
-31 21 -3 27 -9 27 -28 0 -20 5 -24 30 -24 27 0 30 -3 30 -30 0 -30 1 -30 55
-30 54 0 55 0 55 30 0 25 4 30 24 30 19 0 25 6 28 28 2 21 9 28 31 30 21 3 27
9 27 28 0 20 5 24 30 24 27 0 30 3 30 30 0 25 4 30 24 30 19 0 25 6 28 28 2
21 9 28 31 30 21 3 27 9 27 28 0 20 5 24 30 24 27 0 30 3 30 30 0 25 4 30 24
30 19 0 25 6 28 28 2 21 9 28 31 30 21 3 27 9 27 28 0 20 5 24 30 24 27 0 30
3 30 30 0 25 4 30 24 30 19 0 25 6 28 28 2 21 9 28 31 30 21 3 27 9 27 28 0
20 5 24 30 24 27 0 30 3 30 30 0 27 3 30 30 30 27 0 30 3 30 30 0 25 4 30 25
30 20 0 25 5 25 25 0 21 5 25 30 25 27 0 30 3 30 30 0 27 3 30 30 30 27 0 30
3 30 30 0 25 4 30 24 30 19 0 25 6 28 28 2 21 9 28 31 30 21 3 27 9 27 28 0
20 5 24 30 24 27 0 30 3 30 30 0 25 4 30 24 30 19 0 25 6 28 28 2 21 9 28 31
30 21 3 27 9 27 28 0 20 5 24 30 24 27 0 30 3 30 30 0 25 4 30 24 30 19 0 25
6 28 28 2 21 9 28 31 30 21 3 27 9 27 28 0 20 5 24 30 24 27 0 30 3 30 30 0
25 4 30 24 30 19 0 25 6 28 28 2 21 9 28 31 30 21 3 27 9 27 28 0 20 5 24 30
24 27 0 30 3 30 30 0 25 4 30 24 30 19 0 25 6 28 28 2 21 9 28 31 30 21 3 27
9 27 28 0 20 5 24 30 24 27 0 30 3 30 30 0 25 4 30 24 30 22 0 25 5 31 55 7
52 9 55 36 55 24 0 29 4 29 24 0 19 6 25 28 28 21 2 28 9 30 31 3 21 9 27 28
27 20 0 24 5 24 30 0 27 3 30 30 30 27 0 30 3 30 30 0 25 4 30 25 30 20 0 25
5 25 24 0 19 6 25 28 28 21 2 28 9 30 31 3 21 9 27 27 27 18 0 24 6 27 28 2
21 9 28 31 30 23 3 27 8 27 33 0 26 3 29 30 29 27 0 30 3 30 30 0 25 4 30 25
30 23 0 25 3 25 50 0 47 -2 50 -25 50 -21 0 -25 5 -25 30 0 27 -3 30 -30 30
-27 0 -30 3 -30 30 0 27 -3 30 -30 30 -25 0 -30 4 -30 25 0 20 -5 25 -25 25
-21 0 -25 5 -25 30 0 27 -3 30 -30 30 -27 0 -30 3 -30 30 0 27 -3 30 -30 30
-25 0 -30 4 -30 25 0 20 -5 25 -25 25 -21 0 -25 5 -25 30 0 27 -3 30 -30 30
-27 0 -30 3 -30 30 0 27 -3 30 -30 30 -25 0 -30 4 -30 25 0 20 -5 25 -25 25
-21 0 -25 5 -25 30 0 27 -3 30 -30 30 -27 0 -30 3 -30 30 0 27 -3 30 -30 30
-25 0 -30 4 -30 25 0 20 -5 25 -25 25 -21 0 -25 5 -25 30 0 27 -3 30 -30 30
-27 0 -30 3 -30 30 0 27 -3 30 -30 30 -25 0 -30 4 -30 25 0 20 -5 25 -25 25
-21 0 -25 5 -25 30 0 27 -3 30 -30 30 -27 0 -30 3 -30 30 0 27 -3 30 -30 30
-25 0 -30 4 -30 24 0 19 -6 25 -27 28 -22 2 -29 9 -31 31 -3 21 -9 27 -28 27
-20 0 -24 5 -24 30 0 27 -3 30 -30 30 -25 0 -30 4 -30 24 0 19 -6 25 -27 28
-22 2 -29 9 -31 31 -3 21 -9 27 -28 27 -20 0 -24 5 -24 30 0 27 -3 30 -30 30
-27 0 -30 3 -30 30 0 27 -3 30 -30 30 -25 0 -30 4 -30 25 0 20 -5 25 -25 25
-21 0 -25 5 -25 30 0 27 -3 30 -30 30 -27 0 -30 3 -30 30 0 27 -3 30 -30 30
-25 0 -30 4 -30 25 0 20 -5 25 -25 25 -21 0 -25 5 -25 30 0 27 -3 30 -30 30
-27 0 -30 3 -30 30 0 27 -3 30 -30 30 -25 0 -30 4 -30 25 0 20 -5 25 -25 25
-21 0 -25 5 -25 30 0 27 -3 30 -30 30 -27 0 -30 3 -30 30 0 27 -3 30 -30 30
-25 0 -30 4 -30 25 0 20 -5 25 -25 25 -21 0 -25 5 -25 30 0 27 -3 30 -30 30
-27 0 -30 3 -30 30 0 27 -3 30 -30 30 -25 0 -30 4 -30 25 0 20 -5 25 -25 25
-21 0 -25 5 -25 30 0 27 -3 30 -30 30 -27 0 -30 3 -30 30 0 27 -3 30 -30 30
-25 0 -30 4 -30 25 0 24 -3 25 -55 25 -54 0 -55 0 -55 30 0 27 -3 30 -30 30
-27 0 -30 3 -30 30 0 27 -3 30 -30 30 -25 0 -30 4 -30 25 0 20 -5 25 -25 25
-21 0 -25 5 -25 30 0 27 -3 30 -30 30 -27 0 -30 3 -30 30 0 27 -3 30 -30 30
-25 0 -30 4 -30 25 0 20 -5 25 -25 25 -21 0 -25 5 -25 29 0 27 -3 29 -55 36
-50 6 -55 9 -55 31 0 20 -5 24 -30 24 -27 0 -30 3 -30 30 0 27 -3 30 -30 30
-25 0 -30 4 -30 25 0 20 -5 25 -25 25 -21 0 -25 5 -25 30 0 27 -3 30 -30 30
-27 0 -30 3 -30 30 0 27 -3 30 -30 30 -25 0 -30 4 -30 24 0 19 -6 25 -27 28
-22 2 -29 9 -31 30 -3 21 -9 27 -30 30 -19 2 -28 10 -30 25 -3 17 -12 23 -52
28 -43 6 -49 10 -52 33 -2 21 -9 28 -30 30 -22 3 -28 9 -28 28 0 20 -5 24 -30
24 -27 0 -30 3 -30 30 0 27 -3 30 -30 30 -25 0 -30 4 -30 24 0 21 -6 25 -50
31 -44 6 -50 10 -50 31 0 20 -5 24 -29 24 -25 0 -30 4 -33 28 -2 21 -9 28 -30
30 -22 3 -28 9 -28 28 0 20 -5 24 -30 24 -27 0 -30 3 -30 30 0 30 -1 30 -55
30 -54 0 -55 0 -55 30 0 27 -3 30 -30 30 -25 0 -30 4 -30 24 0 19 -6 25 -27
28 -22 2 -29 9 -31 31 -3 26 -6 27 -58 27 -53 0 -54 0 -54 30 0 27 -3 30 -30
30 -25 0 -30 4 -30 24 0 22 -5 25 -55 31 -49 7 -55 10 -55 31 0 20 -5 24 -30
24 -27 0 -30 3 -30 30 0 27 -3 30 -30 30 -25 0 -30 4 -30 24 0 22 -5 25 -55
31 -49 7 -55 10 -55 30 0 18 -6 24 -27 27 -22 2 -29 9 -31 31 -3 26 -6 27 -58
27 -51 0 -54 2 -54 24 0 22 -5 25 -55 31 -49 7 -55 10 -55 31 0 20 -5 24 -30
24 -27 0 -30 3 -30 30 0 30 -1 30 -55 30 -54 0 -55 0 -55 30 0 27 -3 30 -30
30 -25 0 -30 4 -30 25 0 24 -3 25 -55 25 -54 0 -55 0 -55 30 0 30 -1 30 -54
30 -52 0 -55 1 -58 28 -2 22 -8 28 -35 30 -27 3 -33 8 -33 27 0 22 -5 24 -52
27 -49 3 -53 5 -56 31 -3 26 -6 27 -58 27 -53 0 -54 0 -54 30 0 30 -1 30 -55
30 -51 0 -55 2 -55 24 0 21 -6 24 -55 31 -50 6 -55 9 -55 31 0 23 -3 24 -60
24 l-60 0 0 30 c0 30 -1 30 -55 30 -51 0 -55 2 -55 24 0 21 -6 24 -55 31 -49
6 -55 9 -55 29 0 21 -6 24 -60 30 -55 6 -60 9 -60 31 0 24 -3 25 -55 25 -51 0
-55 2 -55 24 0 22 -5 25 -60 31 -55 6 -60 9 -60 31 0 22 -4 24 -55 24 -54 0
-55 0 -55 30 l0 30 -60 0 c-56 0 -60 1 -60 24 0 20 -6 24 -46 30 -26 3 -62 6
-80 6 -29 0 -34 3 -34 25 0 22 -4 24 -57 27 -55 3 -58 4 -61 31 -3 26 -5 27
-63 27 -56 0 -59 1 -59 25 0 22 -4 25 -34 25 -18 0 -54 3 -80 6 -40 6 -46 10
-46 30 0 22 -4 24 -47 24 -27 0 -65 3 -85 6 -32 6 -38 11 -38 30 0 23 -4 24
-60 24 -56 0 -60 1 -60 24 0 20 -6 24 -46 30 -26 3 -64 6 -85 6 -35 0 -39 3
-39 25 0 24 -2 24 -82 27 -82 3 -83 3 -86 31 l-3 27 -85 0 c-82 0 -84 1 -84
24 0 20 -6 24 -46 30 -26 3 -64 6 -85 6 -35 0 -39 3 -39 25 0 24 -2 25 -72 25
-116 0 -148 8 -148 36 0 23 -2 24 -90 24 -88 0 -90 1 -90 24 0 20 -6 24 -46
30 -26 3 -75 6 -110 6 -62 0 -64 1 -64 25 0 25 -2 25 -77 25 -121 0 -153 8
-153 36 0 24 -1 24 -102 24 -135 0 -178 8 -178 30 0 21 -53 30 -166 30 -72 0
-74 1 -74 25 0 25 -1 25 -82 25 -46 0 -120 3 -165 7 -79 6 -83 7 -83 29 l0 24
-170 0 -170 0 0 24 c0 22 -4 23 -82 29 -46 4 -147 7 -225 7 l-143 0 0 25 0 25
-142 0 c-79 0 -221 3 -315 7 -173 6 -173 6 -173 30 l0 23 -970 0 -970 0 0 -23z"/>
<path d="M15750 27339 l0 -570 48 6 c26 3 62 8 80 11 l32 5 0 559 0 560 -80 0
-80 0 0 -571z"/>
<path d="M18825 27351 l-780 -317 -3 -552 -2 -552 466 0 c358 0 463 -3 458
-12 -4 -6 144 130 329 303 l337 314 0 568 c0 447 -3 567 -12 566 -7 0 -364
-143 -793 -318z"/>
<path d="M31380 27490 c0 -25 4 -30 25 -30 20 0 25 -5 25 -25 0 -21 5 -25 30
-25 27 0 30 -3 30 -30 0 -27 3 -30 30 -30 27 0 30 -3 30 -30 0 -25 4 -30 25
-30 20 0 25 -5 25 -25 0 -21 5 -25 30 -25 27 0 30 -3 30 -30 0 -27 3 -30 30
-30 27 0 30 -3 30 -30 0 -25 4 -30 25 -30 20 0 25 -5 25 -25 0 -21 5 -25 30
-25 27 0 30 -3 30 -30 0 -33 6 -35 73 -24 31 6 37 11 37 30 0 20 5 24 30 24
27 0 30 3 30 30 0 27 3 30 30 30 25 0 30 4 30 24 0 19 6 25 28 28 21 2 28 9
30 31 3 21 9 27 27 27 18 0 24 6 27 28 2 21 9 28 31 30 21 3 27 9 27 28 0 20
5 24 30 24 27 0 30 3 30 30 0 27 3 30 30 30 25 0 30 4 30 25 0 20 5 25 25 25
21 0 25 5 25 30 l0 30 -510 0 -510 0 0 -30z"/>
<path d="M15663 26763 c9 -2 23 -2 30 0 6 3 -1 5 -18 5 -16 0 -22 -2 -12 -5z"/>
<path d="M15578 26753 c6 -2 18 -2 25 0 6 3 1 5 -13 5 -14 0 -19 -2 -12 -5z"/>
<path d="M15498 26743 c6 -2 18 -2 25 0 6 3 1 5 -13 5 -14 0 -19 -2 -12 -5z"/>
<path d="M15423 26733 c9 -2 23 -2 30 0 6 3 -1 5 -18 5 -16 0 -22 -2 -12 -5z"/>
<path d="M15343 26723 c9 -2 25 -2 35 0 9 3 1 5 -18 5 -19 0 -27 -2 -17 -5z"/>
<path d="M15273 26713 c9 -2 25 -2 35 0 9 3 1 5 -18 5 -19 0 -27 -2 -17 -5z"/>
<path d="M15150 26700 c-50 -11 1 -11 60 -1 41 8 42 8 10 8 -19 0 -51 -3 -70
-7z"/>
<path d="M14940 26669 c-1845 -305 -3240 -885 -4237 -1761 -137 -120 -410
-401 -524 -538 -540 -649 -865 -1386 -969 -2195 -75 -588 -37 -1071 125 -1560
118 -360 257 -640 490 -990 616 -924 1670 -1744 2995 -2329 829 -367 1755
-649 2788 -852 l142 -28 0 -1867 0 -1867 78 -30 77 -29 3 1970 c1 1084 1 1972
-1 1974 -2 2 -102 23 -223 47 -1148 232 -2103 547 -2974 983 -789 394 -1393
816 -1920 1343 -715 715 -1140 1515 -1256 2365 -24 176 -24 613 0 838 132
1242 741 2291 1796 3092 894 678 2050 1138 3550 1411 129 23 222 42 205 42
-16 0 -82 -9 -145 -19z"/>
<path d="M20702 26342 c2 -8 -432 -537 -822 -1002 -193 -230 -280 -336 -280
-341 0 -4 24 -9 53 -13 194 -26 816 -169 1116 -259 l115 -34 105 126 c58 69
137 164 176 211 39 47 174 209 300 360 126 151 287 344 358 429 71 84 131 159
133 166 11 29 -711 243 -1126 335 -52 11 -103 23 -113 26 -10 3 -16 1 -15 -4z"/>
<path d="M19548 25003 c7 -3 16 -2 19 1 4 3 -2 6 -13 5 -11 0 -14 -3 -6 -6z"/>
<path d="M14314 24436 c-585 -195 -1048 -448 -1409 -773 -86 -78 -267 -268
-225 -237 12 9 160 -104 774 -592 418 -332 762 -604 765 -604 3 1 22 35 41 76
205 451 711 774 1524 975 88 21 168 39 178 39 12 0 -3 17 -44 48 -140 107
-1384 1096 -1399 1112 -15 18 -24 16 -205 -44z"/>
<path d="M23860 23959 c-1104 -149 -1261 -172 -1305 -194 -27 -13 -57 -26 -65
-28 -13 -4 -221 -399 -767 -1450 l-83 -159 63 35 c109 60 3452 1959 3456 1963
9 9 -86 -4 -1299 -167z"/>
<path d="M15755 23029 c-748 -200 -1169 -519 -1286 -976 -28 -113 -45 -355
-28 -413 l13 -45 7 115 c8 142 22 221 59 321 130 356 493 620 1093 795 66 18
123 34 128 34 5 0 9 -454 9 -1118 l0 -1118 28 -10 c15 -6 51 -21 80 -33 l52
-21 0 1250 0 1250 -22 -1 c-13 0 -72 -14 -133 -30z"/>
<path d="M18040 20000 l0 -1460 204 0 205 0 548 471 c301 260 567 489 591 509
l42 38 0 951 0 951 -795 0 -795 0 0 -1460z"/>
<path d="M12607 18930 l-715 -567 137 -90 c1062 -705 2465 -1219 4096 -1503
l71 -12 330 253 c181 140 526 405 767 589 l437 335 0 61 0 61 -202 27 c-1669
225 -3102 693 -4079 1331 l-127 83 -715 -568z m3832 -1121 l95 -99 -34 -35
-34 -35 -63 62 -63 62 -63 -62 -63 -62 -34 35 -34 35 95 99 c51 54 96 98 99
98 3 0 48 -44 99 -98z m-309 -184 l34 -35 -35 -36 -36 -35 -35 35 -36 36 31
34 c18 18 34 34 38 35 3 0 20 -15 39 -34z m250 0 l34 -35 -37 -38 -37 -37 -37
37 -37 38 34 35 c19 19 37 35 40 35 3 0 21 -16 40 -35z m246 0 l35 -35 -35
-37 -36 -38 -37 37 -37 38 34 35 c19 19 35 35 37 35 1 0 19 -16 39 -35z m-223
-147 l63 62 32 -33 c18 -18 32 -37 32 -43 0 -5 -43 -52 -95 -104 l-95 -95 -86
85 c-113 112 -114 114 -73 156 l33 34 63 -62 63 -62 63 62z"/>
<path d="M18399 18503 c-13 -16 -12 -17 4 -4 9 7 17 15 17 17 0 8 -8 3 -21
-13z"/>
<path d="M18040 16915 l0 -1105 795 0 795 0 0 201 c0 186 1 200 18 195 9 -3
76 -23 147 -45 142 -44 407 -140 522 -189 40 -17 72 -27 70 -23 -1 4 232 194
518 421 286 227 585 465 664 528 l144 115 -48 24 c-78 40 -370 167 -520 226
-761 300 -1725 545 -2755 702 -162 25 -307 47 -322 50 l-28 5 0 -1105z"/>
<path d="M19930 14150 l0 -1711 36 7 c20 4 59 12 88 18 l51 11 3 1583 2 1583
23 -7 c62 -19 279 -116 412 -184 572 -290 940 -660 1095 -1100 41 -117 28 -36
-17 100 -157 485 -553 884 -1191 1200 -134 66 -405 182 -479 205 l-23 6 0
-1711z"/>
<path d="M24290 14010 c0 -692 -257 -1331 -747 -1860 -48 -52 -81 -89 -71 -82
14 11 38 4 158 -48 78 -33 143 -60 146 -60 2 0 27 -11 56 -24 29 -13 98 -43
153 -66 55 -23 143 -60 195 -82 52 -22 165 -69 250 -105 85 -35 169 -70 185
-77 17 -8 84 -37 150 -64 276 -117 463 -195 500 -212 90 -41 85 -42 173 69
365 457 628 978 765 1516 36 140 77 340 77 374 0 14 -22 28 -82 54 -126 53
-451 190 -563 237 -55 23 -113 48 -130 56 -16 7 -100 42 -185 78 -85 35 -258
108 -385 162 -126 53 -270 113 -320 134 -49 21 -143 60 -207 88 l-118 50 0
-138z"/>
<path d="M27580 12195 l0 -285 25 0 c21 0 25 -5 25 -30 0 -27 3 -30 30 -30 25
0 30 -4 30 -24 0 -19 6 -25 28 -28 21 -2 28 -9 30 -30 3 -22 9 -28 28 -28 20
0 24 -5 24 -30 0 -27 3 -30 30 -30 25 0 30 -4 30 -24 0 -19 6 -25 28 -28 21
-2 28 -9 30 -30 3 -21 9 -27 30 -30 21 -2 28 -9 30 -30 3 -22 9 -28 28 -28 19
0 24 -5 24 -24 0 -19 6 -25 28 -28 21 -2 28 -9 30 -30 3 -21 9 -27 30 -30 21
-2 28 -9 30 -30 3 -22 9 -28 28 -28 19 0 24 -5 24 -24 0 -19 6 -25 28 -28 21
-2 28 -9 30 -30 3 -21 9 -27 30 -30 21 -2 28 -9 30 -30 3 -22 9 -28 28 -28 19
0 24 -5 24 -24 0 -19 6 -25 28 -28 21 -2 28 -9 30 -30 3 -21 9 -27 30 -30 21
-2 28 -9 30 -30 3 -22 9 -28 28 -28 20 0 24 -5 24 -30 0 -27 3 -30 30 -30 25
0 30 -4 30 -24 0 -19 6 -25 28 -28 21 -2 28 -9 30 -30 3 -22 9 -28 28 -28 20
0 24 -5 24 -30 0 -27 3 -30 30 -30 25 0 30 -4 30 -24 0 -19 6 -25 28 -28 21
-2 28 -9 30 -30 3 -22 9 -28 28 -28 20 0 24 -5 24 -30 0 -27 3 -30 30 -30 25
0 30 -4 30 -24 0 -19 6 -25 28 -28 21 -2 28 -9 30 -30 3 -22 9 -28 28 -28 20
0 24 -5 24 -30 0 -27 3 -30 30 -30 25 0 30 -4 30 -24 0 -19 6 -25 28 -28 21
-2 28 -9 30 -30 3 -22 9 -28 28 -28 20 0 24 -5 24 -30 0 -27 3 -30 30 -30 25
0 30 -4 30 -24 0 -19 6 -25 28 -28 21 -2 28 -9 30 -30 3 -22 9 -28 28 -28 20
0 24 -5 24 -30 0 -27 3 -30 30 -30 25 0 30 -4 30 -24 0 -19 6 -25 28 -28 21
-2 28 -9 30 -30 3 -21 9 -27 30 -30 21 -2 28 -9 30 -30 3 -22 9 -28 28 -28 19
0 24 -5 24 -24 0 -19 6 -25 28 -28 21 -2 28 -9 30 -30 3 -21 9 -27 30 -30 21
-2 28 -9 30 -30 3 -22 9 -28 28 -28 19 0 24 -5 24 -24 0 -19 6 -25 28 -28 21
-2 28 -9 30 -30 3 -21 9 -27 30 -30 21 -2 28 -9 30 -30 3 -22 9 -28 28 -28 19
0 24 -5 24 -24 0 -19 6 -25 28 -28 21 -2 28 -9 30 -30 3 -21 9 -27 30 -30 21
-2 28 -9 30 -30 3 -22 9 -28 28 -28 20 0 24 -5 24 -30 0 -27 3 -30 30 -30 25
0 30 -4 30 -24 0 -19 6 -25 28 -28 21 -2 28 -9 30 -30 3 -22 9 -28 28 -28 20
0 24 -5 24 -30 0 -27 3 -30 30 -30 25 0 30 -4 30 -24 0 -19 6 -25 28 -28 21
-2 28 -9 30 -30 3 -22 9 -28 28 -28 20 0 24 -5 24 -30 0 -27 3 -30 30 -30 25
0 30 -4 30 -24 0 -19 6 -25 28 -28 21 -2 28 -9 30 -30 3 -22 9 -28 28 -28 20
0 24 -5 24 -30 0 -27 3 -30 30 -30 25 0 30 -4 30 -24 0 -19 6 -25 28 -28 21
-2 28 -9 30 -30 3 -22 9 -28 28 -28 20 0 24 -5 24 -30 0 -27 3 -30 30 -30 25
0 30 -4 30 -24 0 -19 6 -25 28 -28 21 -2 28 -9 30 -30 3 -22 9 -28 28 -28 20
0 24 -5 24 -30 0 -27 3 -30 30 -30 25 0 30 -4 30 -24 0 -19 6 -25 28 -28 21
-2 28 -9 30 -30 3 -21 9 -27 30 -30 21 -2 28 -9 30 -30 3 -22 9 -28 28 -28 19
0 24 -5 24 -24 0 -19 6 -25 28 -28 21 -2 28 -9 30 -30 3 -21 9 -27 30 -30 21
-2 28 -9 30 -30 3 -22 9 -28 28 -28 19 0 24 -5 24 -24 0 -19 6 -25 28 -28 21
-2 28 -9 30 -30 3 -21 9 -27 30 -30 21 -2 28 -9 30 -30 3 -22 9 -28 28 -28 19
0 24 -5 24 -24 0 -19 6 -25 28 -28 21 -2 28 -9 30 -30 3 -21 9 -27 30 -30 21
-2 28 -9 30 -30 3 -22 9 -28 28 -28 19 0 24 -5 24 -24 0 -19 6 -25 28 -28 21
-2 28 -9 30 -30 3 -21 9 -27 30 -30 21 -2 28 -9 30 -29 l3 -26 -308 -6 c-169
-4 -363 -7 -430 -7 -116 0 -123 -1 -123 -20 0 -16 -7 -20 -30 -20 -22 0 -30 5
-30 18 0 17 -13 20 -127 25 -71 4 -273 7 -450 7 l-322 0 -3 28 c-2 21 -9 28
-30 30 -21 3 -27 9 -30 30 -2 19 -10 28 -25 30 -14 2 -23 11 -25 25 -2 15 -11
23 -30 25 -21 3 -27 9 -30 30 -2 21 -9 28 -30 30 -21 3 -27 9 -30 30 -2 19
-10 28 -25 30 -14 2 -23 11 -25 25 -2 15 -11 23 -30 25 -21 3 -27 9 -30 30 -2
21 -9 28 -30 30 -21 3 -27 9 -30 30 -2 19 -10 28 -25 30 -14 2 -23 11 -25 25
-2 15 -11 23 -30 25 -21 3 -27 9 -30 30 -2 21 -9 28 -30 30 -21 3 -27 9 -30
30 -2 19 -10 28 -25 30 -14 2 -23 11 -25 25 -2 15 -11 23 -30 25 -21 3 -27 9
-30 30 -2 21 -9 28 -30 30 -21 3 -27 9 -30 30 -2 19 -10 28 -25 30 -17 3 -23
10 -23 28 0 20 -5 24 -29 24 -25 0 -30 4 -33 28 -2 21 -9 28 -30 30 -21 3 -27
9 -30 30 -2 21 -9 28 -30 30 -22 3 -28 9 -28 28 0 19 -5 24 -24 24 -19 0 -25
6 -28 28 -2 21 -9 28 -30 30 -21 3 -27 9 -30 30 -2 21 -9 28 -30 30 -22 3 -28
9 -28 28 0 19 -5 24 -24 24 -19 0 -25 6 -28 28 -2 21 -9 28 -30 30 -21 3 -27
9 -30 30 -2 21 -9 28 -30 30 -22 3 -28 9 -28 28 0 19 -5 24 -24 24 -19 0 -25
6 -28 28 -2 21 -9 28 -30 30 -21 3 -27 9 -30 30 -2 21 -9 28 -30 30 -21 3 -27
9 -30 30 -2 19 -10 28 -25 30 -14 2 -23 11 -25 25 -2 15 -11 23 -30 25 -21 3
-27 9 -30 30 -2 21 -9 28 -30 30 -21 3 -27 9 -30 30 -2 19 -10 28 -25 30 -14
2 -23 11 -25 25 -2 15 -11 23 -30 25 -21 3 -27 9 -30 30 -2 21 -9 28 -30 30
-21 3 -27 9 -30 30 -2 19 -10 28 -25 30 -14 2 -23 11 -25 25 -2 15 -11 23 -30
25 -21 3 -27 9 -30 30 -2 21 -9 28 -30 30 -21 3 -27 9 -30 30 -2 19 -10 28
-25 30 -14 2 -23 11 -25 25 -2 15 -11 23 -30 25 -21 3 -27 9 -30 30 -2 21 -9
28 -30 30 -21 3 -27 9 -30 30 -2 19 -10 28 -25 30 -14 2 -23 11 -25 25 -2 15
-11 23 -30 25 -21 3 -27 9 -30 30 -2 21 -9 28 -30 30 -21 3 -27 9 -30 30 -2
21 -8 27 -28 27 l-25 0 -3 -1192 -2 -1193 -25 0 c-21 0 -25 -5 -25 -30 0 -27
-3 -30 -30 -30 -27 0 -30 -3 -30 -30 0 -27 -3 -30 -30 -30 -25 0 -30 -4 -30
-25 0 -20 -5 -25 -25 -25 -21 0 -25 -5 -25 -30 0 -27 -3 -30 -30 -30 -27 0
-30 -3 -30 -30 0 -27 -3 -30 -30 -30 -25 0 -30 -4 -30 -24 0 -19 -6 -25 -27
-28 -22 -2 -29 -9 -31 -30 -3 -22 -9 -28 -27 -28 -18 0 -24 -6 -27 -27 -2 -22
-9 -29 -30 -31 -22 -3 -28 -9 -28 -28 0 -20 -5 -24 -30 -24 -27 0 -30 -3 -30
-30 0 -27 -3 -30 -30 -30 -25 0 -30 -4 -30 -24 0 -21 -6 -25 -49 -31 -44 -6
-50 -10 -53 -33 -2 -21 -9 -28 -30 -30 -22 -3 -28 -9 -28 -28 0 -20 -5 -24
-30 -24 -27 0 -30 -3 -30 -30 0 -27 -3 -30 -30 -30 -25 0 -30 -4 -30 -24 0
-19 -6 -25 -27 -28 -22 -2 -29 -9 -31 -30 -3 -21 -9 -27 -30 -30 -19 -2 -28
-10 -30 -25 -3 -19 -12 -24 -52 -29 -43 -6 -49 -9 -52 -33 -2 -20 -9 -27 -30
-29 -22 -3 -28 -9 -28 -28 0 -20 -5 -24 -30 -24 -27 0 -30 -3 -30 -30 0 -27
-3 -30 -30 -30 -25 0 -30 -4 -30 -24 0 -22 -5 -25 -55 -31 -49 -7 -55 -10 -55
-30 0 -18 -6 -24 -27 -27 -22 -2 -29 -9 -31 -30 -3 -24 -8 -28 -33 -28 -24 0
-29 -4 -29 -24 0 -21 -6 -25 -50 -31 -44 -6 -50 -10 -50 -31 0 -20 -5 -24 -30
-24 -27 0 -30 -3 -30 -30 0 -27 -3 -30 -30 -30 -25 0 -30 -4 -30 -24 0 -21 -6
-24 -55 -31 -50 -6 -55 -9 -55 -31 0 -20 -5 -24 -30 -24 -27 0 -30 -3 -30 -30
0 -30 -1 -30 -54 -30 -52 0 -55 -1 -58 -27 -2 -22 -9 -29 -30 -31 -22 -3 -28
-9 -28 -27 0 -20 -6 -23 -55 -30 -50 -6 -55 -9 -55 -31 0 -20 -5 -24 -30 -24
-25 0 -30 -4 -30 -24 0 -21 -6 -24 -55 -31 -50 -6 -55 -9 -55 -31 0 -20 -5
-24 -30 -24 -27 0 -30 -3 -30 -30 0 -30 -1 -30 -54 -30 -52 0 -55 -1 -58 -27
-3 -26 -7 -28 -55 -31 -48 -3 -53 -5 -53 -27 0 -19 -6 -24 -32 -27 -28 -2 -34
-8 -36 -30 -3 -27 -6 -28 -58 -28 -53 0 -54 0 -54 -30 0 -30 -1 -30 -55 -30
-52 0 -55 -1 -55 -25 0 -21 -5 -25 -30 -25 -27 0 -30 -3 -30 -30 0 -30 -1 -30
-55 -30 -52 0 -55 -1 -55 -25 0 -22 -5 -25 -60 -31 -54 -6 -60 -9 -60 -30 0
-20 -6 -23 -55 -29 -49 -7 -55 -10 -55 -31 0 -22 -4 -24 -55 -24 -54 0 -55 0
-55 -30 0 -30 -1 -30 -55 -30 -51 0 -55 -2 -55 -24 0 -22 -5 -25 -60 -31 -55
-6 -60 -9 -60 -31 0 -22 -4 -24 -55 -24 -54 0 -55 0 -55 -30 l0 -30 -60 0
c-57 0 -60 -1 -60 -24 0 -22 -5 -25 -55 -31 -49 -7 -55 -10 -55 -31 0 -21 -5
-23 -57 -26 -55 -3 -58 -4 -61 -30 -3 -27 -6 -28 -58 -28 -50 0 -54 -2 -54
-24 0 -20 -6 -24 -46 -30 -26 -3 -64 -6 -85 -6 -35 0 -39 -3 -39 -25 0 -24 -3
-25 -55 -25 -54 0 -55 0 -55 -30 l0 -30 -60 0 c-56 0 -60 -1 -60 -24 0 -20 -6
-24 -46 -30 -26 -3 -64 -6 -85 -6 -35 0 -39 -3 -39 -25 0 -23 -4 -25 -42 -25
-24 0 -60 -3 -80 -6 -32 -6 -38 -11 -38 -30 0 -23 -4 -24 -60 -24 -56 0 -60
-1 -60 -24 0 -20 -6 -24 -46 -30 -26 -3 -64 -6 -85 -6 -35 0 -39 -3 -39 -25 0
-23 -4 -25 -47 -25 -27 0 -65 -3 -85 -6 -32 -6 -38 -11 -38 -30 0 -23 -2 -24
-85 -24 -83 0 -85 -1 -85 -24 0 -20 -6 -24 -46 -30 -26 -3 -64 -6 -85 -6 -35
0 -39 -3 -39 -25 0 -24 -2 -24 -87 -27 -81 -3 -88 -5 -91 -24 -4 -27 -35 -34
-143 -34 -76 0 -79 -1 -79 -24 0 -28 -32 -36 -147 -36 -71 0 -73 -1 -73 -25 0
-24 -2 -25 -69 -25 -37 0 -89 -3 -115 -6 -40 -6 -46 -10 -46 -30 0 -24 -1 -24
-115 -24 -114 0 -115 0 -115 -24 0 -20 -6 -24 -46 -30 -26 -3 -89 -6 -140 -6
-94 0 -94 0 -94 -25 0 -24 -3 -25 -62 -25 -35 0 -100 -3 -145 -7 -79 -6 -83
-7 -83 -29 l0 -24 -170 0 -170 0 0 -24 c0 -20 -6 -24 -46 -30 -26 -3 -116 -6
-200 -6 l-154 0 0 -25 c0 -25 -1 -25 -82 -25 -46 0 -161 -3 -255 -7 -169 -6
-173 -7 -173 -28 l0 -22 -625 -5 c-344 -3 -906 -3 -1250 0 l-625 5 0 22 0 23
-280 7 -280 7 0 24 0 24 -154 0 c-84 0 -174 3 -200 6 -40 6 -46 10 -46 30 l0
24 -170 0 -170 0 0 24 c0 22 -4 23 -82 29 -46 4 -111 7 -145 7 -60 0 -63 1
-63 25 0 25 0 25 -94 25 -51 0 -114 3 -140 6 -40 6 -46 10 -46 30 0 24 -1 24
-115 24 -114 0 -115 0 -115 24 0 20 -6 24 -46 30 -26 3 -75 6 -110 6 -62 0
-64 1 -64 25 0 25 -2 25 -77 25 -121 0 -153 8 -153 36 0 23 -2 24 -85 24 -83
0 -85 1 -85 24 0 20 -6 24 -46 30 -26 3 -66 6 -90 6 -40 0 -44 2 -44 25 0 24
-2 25 -64 25 -35 0 -84 3 -110 6 -40 6 -46 10 -46 30 0 23 -2 24 -85 24 l-85
0 0 30 0 30 -60 0 c-57 0 -60 1 -60 25 0 24 -2 24 -82 27 -82 3 -83 3 -86 31
-3 27 -4 27 -82 27 -78 0 -79 0 -82 28 -3 27 -4 27 -85 30 -80 3 -83 4 -83 26
0 22 -6 25 -60 31 -55 6 -60 9 -60 31 0 23 -3 24 -60 24 -56 0 -60 1 -60 24 0
19 -6 24 -37 30 -21 3 -57 6 -80 6 -39 0 -43 2 -43 24 0 22 -5 25 -60 31 -55
6 -60 9 -60 31 0 22 -4 24 -55 24 -51 0 -55 2 -55 24 0 19 -6 24 -37 30 -21 3
-59 6 -85 6 -44 0 -48 2 -48 24 0 22 -5 25 -55 31 -48 6 -55 10 -55 30 0 20
-6 23 -60 29 -55 6 -60 9 -60 31 0 24 -3 25 -55 25 -51 0 -55 2 -55 24 0 21
-6 24 -55 31 -49 6 -55 9 -55 29 0 21 -6 24 -60 30 -55 6 -60 9 -60 31 0 23
-3 25 -54 25 -52 0 -55 1 -58 28 -2 21 -9 28 -30 30 -22 3 -28 9 -28 28 0 22
-3 24 -55 24 -54 0 -55 0 -55 30 l0 30 -60 0 c-57 0 -60 1 -60 24 0 22 -5 25
-55 31 -49 7 -55 10 -55 31 0 20 -5 24 -30 24 -27 0 -30 3 -30 30 0 30 -1 30
-55 30 -52 0 -55 2 -55 24 0 22 -5 25 -55 31 -49 7 -55 10 -55 31 0 20 -5 24
-30 24 -27 0 -30 3 -30 30 0 30 -1 30 -54 30 -52 0 -55 1 -58 28 -3 25 -7 27
-55 30 -48 3 -53 5 -53 27 0 19 -6 24 -32 27 -28 2 -34 8 -36 31 -3 25 -6 27
-52 27 -46 0 -49 2 -52 28 -2 22 -8 28 -35 30 -27 3 -33 8 -33 27 0 20 -6 24
-50 30 -44 6 -50 10 -50 30 0 19 -6 24 -32 27 -28 2 -34 8 -36 31 -3 23 -8 27
-33 27 -24 0 -29 4 -29 24 0 21 -6 25 -50 31 -44 6 -50 10 -50 31 0 20 -5 24
-30 24 -25 0 -30 4 -30 24 0 22 -5 25 -55 31 -49 7 -55 10 -55 31 0 20 -5 24
-30 24 -27 0 -30 3 -30 30 0 27 -3 30 -30 30 -27 0 -30 3 -30 30 0 30 -1 30
-54 30 -52 0 -55 1 -58 28 -2 21 -9 28 -30 30 -22 3 -28 9 -28 28 0 20 -5 24
-30 24 -27 0 -30 3 -30 30 0 27 -3 30 -30 30 -25 0 -30 4 -30 24 0 21 -6 25
-50 31 -44 6 -50 10 -50 31 0 20 -5 24 -30 24 -27 0 -30 3 -30 30 0 27 -3 30
-30 30 -25 0 -30 4 -30 24 0 19 -6 25 -27 28 -22 2 -29 9 -31 29 -3 24 -8 27
-58 34 -49 6 -54 9 -54 31 0 19 -5 24 -24 24 -19 0 -25 6 -28 28 -2 21 -9 28
-30 30 -22 3 -28 9 -28 28 0 20 -5 24 -30 24 -27 0 -30 3 -30 30 0 27 -3 30
-30 30 -25 0 -30 4 -30 24 0 19 -6 25 -27 28 -22 2 -29 9 -31 31 -3 21 -9 27
-28 27 -20 0 -24 5 -24 30 0 27 -3 30 -30 30 -25 0 -30 4 -30 24 0 19 -6 25
-27 28 -22 2 -29 9 -31 30 -3 23 -9 27 -53 33 -43 6 -49 10 -49 31 0 20 -5 24
-30 24 -27 0 -30 3 -30 30 0 27 -3 30 -29 30 -25 0 -30 4 -33 28 -2 21 -9 28
-30 30 -22 3 -28 9 -28 28 0 23 -3 24 -60 24 -57 0 -60 -1 -60 -25 0 -20 -5
-25 -25 -25 -21 0 -25 -5 -25 -30 0 -27 -3 -30 -30 -30 -27 0 -30 -3 -30 -30
0 -27 -3 -30 -30 -30 -25 0 -30 -4 -30 -25 0 -20 -5 -25 -25 -25 -21 0 -25 -5
-25 -30 0 -27 -3 -30 -30 -30 -27 0 -30 -3 -30 -30 0 -27 -3 -30 -30 -30 -25
0 -30 -4 -30 -25 0 -20 -5 -25 -25 -25 -21 0 -25 -5 -25 -30 0 -27 -3 -30 -30
-30 -27 0 -30 -3 -30 -30 0 -27 -3 -30 -30 -30 -25 0 -30 -4 -30 -25 0 -20 -5
-25 -25 -25 -21 0 -25 -5 -25 -30 0 -27 -3 -30 -30 -30 -27 0 -30 -3 -30 -30
0 -27 -3 -30 -30 -30 -25 0 -30 -4 -30 -24 0 -21 -6 -25 -49 -31 -44 -6 -50
-10 -53 -33 -2 -21 -9 -28 -30 -30 -21 -3 -27 -9 -30 -30 -2 -21 -9 -28 -30
-30 -22 -3 -28 -9 -28 -28 0 -19 -5 -24 -24 -24 -19 0 -25 -6 -28 -27 -2 -22
-9 -29 -30 -31 -21 -3 -27 -9 -30 -30 -2 -21 -9 -28 -30 -30 -22 -3 -28 -9
-28 -28 0 -19 -5 -24 -24 -24 -19 0 -25 -6 -28 -27 -2 -22 -9 -29 -30 -31 -21
-3 -27 -9 -30 -30 -2 -21 -9 -28 -30 -30 -22 -3 -28 -9 -28 -28 0 -19 -5 -24
-24 -24 -19 0 -25 -6 -28 -27 -2 -22 -9 -29 -30 -31 -21 -3 -27 -9 -30 -30 -2
-21 -9 -28 -30 -30 -22 -3 -28 -9 -28 -28 0 -20 -5 -24 -30 -24 -27 0 -30 -3
-30 -30 0 -25 -4 -30 -24 -30 -19 0 -25 -6 -28 -27 -2 -22 -9 -29 -30 -31 -22
-3 -28 -9 -28 -28 0 -20 -5 -24 -30 -24 -27 0 -30 -3 -30 -30 0 -25 -4 -30
-24 -30 -19 0 -25 -6 -28 -27 -2 -22 -9 -29 -30 -31 -22 -3 -28 -9 -28 -28 0
-20 -5 -24 -30 -24 -27 0 -30 -3 -30 -30 0 -25 -4 -30 -24 -30 -19 0 -25 -6
-28 -27 -2 -22 -9 -29 -30 -31 -22 -3 -28 -9 -28 -28 0 -20 -5 -24 -30 -24
-27 0 -30 -3 -30 -30 0 -25 -4 -30 -24 -30 -19 0 -25 -6 -28 -27 -2 -22 -9
-29 -30 -31 -22 -3 -28 -9 -28 -28 0 -20 -5 -24 -30 -24 -27 0 -30 -3 -30 -30
0 -25 -4 -30 -24 -30 -19 0 -25 -6 -28 -27 -2 -22 -9 -29 -30 -31 -22 -3 -28
-9 -28 -28 0 -20 -5 -24 -30 -24 -27 0 -30 -3 -30 -30 0 -27 -3 -30 -30 -30
-30 0 -30 -1 -30 -55 0 -54 0 -55 30 -55 27 0 30 -3 30 -30 0 -27 3 -30 30
-30 25 0 30 -4 30 -25 0 -20 5 -25 25 -25 21 0 25 -5 25 -30 0 -27 3 -30 30
-30 27 0 30 -3 30 -30 0 -27 3 -30 30 -30 25 0 30 -4 30 -25 0 -20 5 -25 25
-25 21 0 25 -5 25 -30 0 -27 3 -30 30 -30 27 0 30 -3 30 -30 0 -27 3 -30 30
-30 25 0 30 -4 30 -24 0 -19 6 -25 28 -28 21 -2 28 -9 30 -31 3 -21 9 -27 28
-27 19 0 24 -5 24 -24 0 -19 6 -25 28 -28 21 -2 28 -9 30 -29 3 -24 8 -27 58
-34 48 -6 54 -9 54 -30 0 -18 6 -24 28 -27 21 -2 28 -9 30 -31 3 -21 9 -27 27
-27 18 0 24 -6 27 -27 2 -22 9 -29 31 -31 21 -3 27 -9 27 -28 0 -20 5 -24 30
-24 27 0 30 -3 30 -30 0 -27 3 -30 30 -30 25 0 30 -4 30 -24 0 -19 6 -25 28
-28 21 -2 28 -9 30 -31 3 -25 6 -27 53 -27 48 0 49 -1 49 -30 0 -27 3 -30 29
-30 25 0 30 -4 33 -28 2 -21 9 -28 31 -30 21 -3 27 -9 27 -28 0 -20 5 -24 30
-24 27 0 30 -3 30 -30 0 -30 1 -30 55 -30 54 0 55 0 55 -30 0 -27 3 -30 30
-30 25 0 30 -4 30 -25 0 -20 5 -25 25 -25 21 0 25 -5 25 -30 0 -27 3 -30 30
-30 25 0 30 -4 30 -24 0 -21 6 -24 55 -31 50 -6 55 -9 55 -31 0 -20 5 -24 30
-24 27 0 30 -3 30 -30 0 -27 3 -30 30 -30 25 0 30 -4 30 -24 0 -22 5 -25 55
-31 49 -7 55 -10 55 -31 0 -20 5 -24 30 -24 27 0 30 -3 30 -30 0 -27 3 -30 30
-30 25 0 30 -4 30 -24 0 -22 5 -25 55 -31 49 -7 55 -10 55 -30 0 -18 6 -24 28
-27 21 -2 28 -9 30 -30 3 -25 7 -27 55 -30 48 -3 52 -5 55 -31 3 -23 8 -27 33
-27 24 0 29 -4 29 -24 0 -21 6 -25 50 -31 44 -6 50 -10 50 -30 0 -19 6 -24 33
-27 27 -2 33 -8 35 -31 3 -25 6 -27 53 -27 45 0 49 -2 49 -24 0 -21 6 -25 33
-28 26 -2 33 -8 35 -29 3 -24 8 -27 58 -34 49 -6 54 -9 54 -31 0 -20 5 -24 30
-24 25 0 30 -4 30 -24 0 -22 5 -25 55 -31 49 -7 55 -10 55 -31 0 -20 5 -24 30
-24 27 0 30 -3 30 -30 0 -30 1 -30 55 -30 51 0 55 -2 55 -24 0 -21 6 -24 55
-31 50 -6 55 -9 55 -31 0 -20 5 -24 30 -24 27 0 30 -3 30 -30 0 -30 1 -30 55
-30 51 0 55 -2 55 -24 0 -22 5 -25 60 -31 55 -6 60 -9 60 -31 0 -20 5 -24 30
-24 27 0 30 -3 30 -30 0 -30 1 -30 55 -30 51 0 55 -2 55 -24 0 -21 6 -24 55
-31 50 -6 55 -9 55 -31 0 -22 3 -24 55 -24 54 0 55 0 55 -30 l0 -30 60 0 60 0
0 -30 c0 -30 1 -30 55 -30 52 0 55 -1 55 -25 0 -21 5 -25 30 -25 27 0 30 -3
30 -30 l0 -30 60 0 c57 0 60 -1 60 -24 0 -22 5 -25 55 -31 49 -7 55 -10 55
-31 0 -22 4 -24 55 -24 54 0 55 0 55 -30 l0 -30 85 0 85 0 0 -30 c0 -30 1 -30
55 -30 51 0 55 -2 55 -24 0 -22 5 -25 60 -31 55 -6 60 -9 60 -31 0 -22 4 -24
55 -24 54 0 55 0 55 -30 l0 -30 60 0 c57 0 60 -1 60 -25 0 -23 4 -25 43 -25
23 0 59 -3 79 -6 32 -6 38 -11 38 -30 0 -23 4 -24 60 -24 l60 0 0 -30 c0 -30
1 -30 55 -30 52 0 55 -1 55 -25 0 -23 4 -25 48 -25 26 0 64 -3 84 -6 32 -6 38
-11 38 -30 0 -23 4 -24 60 -24 56 0 60 -1 60 -24 0 -19 6 -24 38 -30 20 -3 58
-6 85 -6 43 0 47 -2 47 -24 0 -20 6 -24 46 -30 26 -3 62 -6 80 -6 30 0 34 -3
34 -25 0 -24 3 -25 60 -25 56 0 60 -1 60 -24 0 -19 6 -24 37 -30 21 -3 59 -6
86 -6 43 0 47 -2 47 -25 0 -22 4 -25 39 -25 21 0 59 -3 85 -6 40 -6 46 -10 46
-30 0 -23 2 -24 85 -24 l85 0 0 -30 0 -30 85 0 c84 0 85 0 85 -25 0 -22 4 -25
38 -25 20 0 61 -3 90 -6 46 -6 52 -9 52 -30 0 -23 3 -24 73 -24 115 0 147 -8
147 -36 0 -23 2 -24 85 -24 83 0 85 -1 85 -24 0 -24 2 -24 115 -31 112 -7 115
-8 115 -31 0 -23 3 -24 73 -24 115 0 147 -8 147 -36 0 -24 1 -24 115 -24 114
0 115 0 115 -24 0 -22 4 -23 83 -29 45 -4 108 -7 140 -7 54 0 57 -1 57 -25 0
-25 2 -25 78 -25 120 0 152 -8 152 -36 l0 -24 145 0 145 0 0 -24 c0 -22 4 -23
83 -29 45 -4 121 -7 170 -7 86 0 87 0 87 -25 l0 -25 118 0 c66 0 153 -3 195
-6 72 -7 77 -8 77 -30 l0 -24 200 0 200 0 0 -23 c0 -23 2 -24 128 -30 70 -4
198 -7 285 -7 l157 0 0 -25 0 -25 273 0 c151 0 369 -3 485 -7 l212 -6 0 -24 0
-23 565 0 565 0 0 23 0 24 218 6 c119 4 337 7 485 7 l267 0 0 25 0 25 198 0
c108 0 234 3 280 7 78 6 82 7 82 29 l0 24 200 0 200 0 0 24 c0 22 4 23 83 29
45 4 135 7 200 7 l117 0 0 25 c0 25 1 25 88 25 48 0 124 3 170 7 78 6 82 7 82
29 l0 24 140 0 140 0 0 24 c0 20 6 24 46 30 26 3 80 6 120 6 72 0 74 1 74 25
0 25 1 25 89 25 48 0 109 3 135 6 40 6 46 10 46 30 0 24 1 24 115 24 114 0
115 0 115 24 0 20 6 24 46 30 26 3 78 6 115 6 66 0 69 1 69 24 0 23 3 24 110
31 107 7 110 8 110 31 0 24 2 24 90 24 88 0 90 1 90 24 0 28 32 36 148 36 70
0 72 1 72 25 0 22 4 25 39 25 21 0 59 3 85 6 40 6 46 10 46 30 0 23 2 24 84
24 l85 0 3 27 c3 28 4 28 86 31 78 3 82 4 82 26 0 21 6 24 53 30 28 3 67 6 85
6 27 0 32 3 32 25 0 25 1 25 84 25 l85 0 3 28 c3 27 4 27 86 30 79 3 82 4 82
26 0 22 6 25 60 31 55 6 60 9 60 31 0 23 2 24 85 24 l85 0 0 30 0 30 60 0 c56
0 60 1 60 24 0 19 6 24 38 30 20 3 56 6 80 6 38 0 42 2 42 25 0 24 3 25 60 25
l60 0 0 30 0 30 79 0 c79 0 80 0 83 28 3 26 6 27 61 30 53 3 57 5 57 27 0 22
4 24 58 27 54 3 57 4 60 31 3 26 6 27 58 27 51 0 54 2 54 25 0 22 5 25 60 31
55 6 60 9 60 30 0 22 4 24 55 24 54 0 55 0 55 30 l0 30 79 0 c79 0 80 0 83 28
3 25 7 27 56 30 47 3 52 5 52 26 0 21 6 24 60 30 55 6 60 9 60 31 0 21 5 25
30 25 25 0 30 4 30 24 0 22 5 25 60 31 54 6 60 9 60 30 0 22 5 24 53 27 48 3
52 5 55 31 3 26 6 27 57 27 51 0 54 1 57 28 3 25 7 27 56 30 47 3 52 5 52 27
0 21 6 24 60 30 55 6 60 9 60 31 0 22 4 24 55 24 54 0 55 0 55 30 0 27 3 30
30 30 25 0 30 4 30 24 0 21 6 24 55 31 50 6 55 9 55 31 0 22 3 24 55 24 54 0
55 0 55 30 0 28 3 30 35 30 30 0 35 3 35 24 0 21 6 25 50 31 43 6 50 10 50 30
0 20 6 23 60 29 55 6 60 9 60 31 0 21 5 25 30 25 25 0 30 4 30 24 0 22 5 25
55 31 49 7 55 10 55 31 0 20 5 24 30 24 27 0 30 3 30 30 0 30 1 30 55 30 54 0
55 0 55 30 0 27 3 30 30 30 25 0 30 4 30 25 0 24 3 25 55 25 54 0 55 0 55 30
0 27 3 30 30 30 25 0 30 4 30 24 0 22 5 25 55 31 49 7 55 10 55 31 0 20 5 24
30 24 27 0 30 3 30 30 0 30 1 30 55 30 54 0 55 0 55 30 0 27 3 30 30 30 25 0
30 4 30 25 0 21 5 25 30 25 25 0 30 4 30 24 0 22 5 25 55 31 52 7 55 9 55 36
0 26 4 29 30 29 25 0 30 4 30 24 0 21 6 25 50 31 44 6 50 10 50 31 0 20 5 24
29 24 25 0 30 4 33 28 2 21 9 28 31 30 21 3 27 9 27 27 0 20 6 23 55 30 50 6
55 9 55 31 0 20 5 24 30 24 27 0 30 3 30 30 0 27 3 30 30 30 25 0 30 4 30 25
0 21 5 25 30 25 27 0 30 3 30 30 0 30 1 30 55 30 54 0 55 0 55 30 0 25 4 30
25 30 20 0 25 5 25 25 0 21 5 25 30 25 27 0 30 3 30 30 0 27 3 30 30 30 27 0
30 3 30 30 0 27 3 30 30 30 25 0 30 4 30 24 0 22 5 25 55 31 49 7 55 10 55 31
0 20 5 24 30 24 27 0 30 3 30 30 0 25 4 30 24 30 19 0 25 6 28 28 2 21 9 28
31 30 21 3 27 9 27 28 0 20 5 24 30 24 27 0 30 3 30 30 0 27 3 30 30 30 25 0
30 4 30 24 0 19 6 25 28 28 21 2 28 9 30 30 3 23 9 27 53 33 43 6 49 10 49 31
0 20 5 24 30 24 27 0 30 3 30 30 0 27 3 30 30 30 25 0 30 4 30 25 0 20 5 25
25 25 21 0 25 5 25 30 0 27 3 30 30 30 27 0 30 3 30 30 0 27 3 30 30 30 25 0
30 4 30 25 0 20 5 25 25 25 21 0 25 5 25 30 0 27 3 30 30 30 27 0 30 3 30 30
0 27 3 30 30 30 25 0 30 4 30 24 0 19 6 25 28 28 21 2 28 9 30 31 3 21 9 27
28 27 20 0 24 5 24 30 0 27 3 30 30 30 25 0 30 4 30 24 0 19 6 25 28 28 21 2
28 9 30 31 3 21 9 27 28 27 20 0 24 5 24 30 0 27 3 30 30 30 25 0 30 4 30 24
0 19 6 25 28 28 21 2 28 9 30 31 3 21 9 27 28 27 20 0 24 5 24 30 0 27 3 30
30 30 25 0 30 4 30 24 0 19 6 25 28 28 21 2 28 9 30 31 3 21 9 27 28 27 20 0
24 5 24 30 0 27 3 30 30 30 27 0 30 3 30 30 0 27 3 30 30 30 25 0 30 4 30 25
0 20 5 25 25 25 21 0 25 5 25 30 0 27 3 30 30 30 27 0 30 3 30 30 0 27 3 30
30 30 25 0 30 4 30 25 0 20 5 25 25 25 21 0 25 5 25 30 0 27 3 30 30 30 27 0
30 3 30 30 0 27 3 30 30 30 25 0 30 4 30 25 0 20 5 25 25 25 21 0 25 5 25 30
0 27 3 30 29 30 25 0 30 4 33 28 2 21 9 28 31 30 21 3 27 9 27 28 0 19 5 24
25 24 21 0 25 5 25 30 0 27 3 30 30 30 27 0 30 3 30 30 0 27 3 30 30 30 25 0
30 4 30 25 0 20 5 25 25 25 21 0 25 5 25 30 0 27 3 30 30 30 27 0 30 3 30 30
0 27 3 30 30 30 25 0 30 4 30 25 0 20 5 25 24 25 19 0 25 6 28 28 2 21 9 28
31 30 23 3 27 8 27 33 0 26 3 29 30 29 25 0 30 4 30 24 0 19 6 25 28 28 21 2
28 9 30 31 3 21 9 27 28 27 20 0 24 5 24 30 0 27 3 30 30 30 25 0 30 4 30 24
0 19 6 25 28 28 21 2 28 9 30 31 3 21 9 27 28 27 20 0 24 5 24 30 0 27 3 30
30 30 27 0 30 3 30 30 0 27 3 30 30 30 25 0 30 4 30 25 0 20 5 25 25 25 21 0
25 5 25 30 0 27 3 30 30 30 27 0 30 3 30 30 0 27 3 30 30 30 25 0 30 4 30 25
0 20 5 25 25 25 21 0 25 5 25 30 0 27 3 30 30 30 27 0 30 3 30 30 0 27 3 30
30 30 30 0 30 1 30 55 0 54 0 55 -30 55 -27 0 -30 3 -30 30 0 25 -4 30 -25 30
-20 0 -25 5 -25 25 0 21 -5 25 -30 25 -27 0 -30 3 -30 30 0 27 -3 30 -30 30
-27 0 -30 3 -30 30 0 25 -4 30 -25 30 -20 0 -25 5 -25 25 0 21 -5 25 -30 25
-27 0 -30 3 -30 30 0 27 -3 30 -30 30 -27 0 -30 3 -30 30 0 25 -4 30 -25 30
-20 0 -25 5 -25 25 0 21 -5 25 -30 25 -27 0 -30 3 -30 30 0 27 -3 30 -30 30
-27 0 -30 3 -30 30 0 25 -4 30 -25 30 -20 0 -25 5 -25 25 0 21 -5 25 -30 25
-27 0 -30 3 -30 30 0 27 -3 30 -30 30 -27 0 -30 3 -30 30 0 25 -4 30 -24 30
-19 0 -25 6 -28 28 -2 21 -9 28 -30 30 -22 3 -28 9 -28 28 0 20 -5 24 -30 24
-27 0 -30 3 -30 30 0 27 -3 30 -30 30 -27 0 -30 3 -30 30 0 25 -4 30 -25 30
-20 0 -25 5 -25 25 0 21 -5 25 -30 25 -27 0 -30 3 -30 30 0 27 -3 30 -30 30
-27 0 -30 3 -30 30 0 25 -4 30 -25 30 -20 0 -25 5 -25 25 0 21 -5 25 -30 25
-27 0 -30 3 -30 30 0 27 -3 30 -30 30 -27 0 -30 3 -30 30 0 25 -4 30 -25 30
-20 0 -25 5 -25 25 0 21 -5 25 -30 25 -27 0 -30 3 -30 30 0 27 -3 30 -30 30
-27 0 -30 3 -30 30 0 25 -4 30 -25 30 -20 0 -25 5 -25 25 0 21 -5 25 -30 25
-27 0 -30 3 -30 30 0 27 -3 30 -30 30 -27 0 -30 3 -30 30 0 25 -4 30 -25 30
-20 0 -25 5 -25 25 0 21 -5 25 -30 25 -27 0 -30 3 -30 30 0 27 -3 30 -30 30
-27 0 -30 3 -30 30 0 25 -4 30 -25 30 -20 0 -25 5 -25 25 0 21 -5 25 -30 25
-27 0 -30 3 -30 30 0 27 -3 30 -30 30 -27 0 -30 3 -30 30 0 25 -4 30 -25 30
-20 0 -25 5 -25 25 0 21 -5 25 -30 25 -27 0 -30 3 -30 30 0 27 -3 30 -30 30
-27 0 -30 3 -30 30 0 25 -4 30 -25 30 -20 0 -25 5 -25 25 0 21 -5 25 -30 25
-27 0 -30 3 -30 30 0 27 -3 30 -30 30 -27 0 -30 3 -30 30 0 27 -3 30 -30 30
-27 0 -30 3 -30 30 0 25 -4 30 -25 30 -20 0 -25 5 -25 25 0 21 -5 25 -30 25
-27 0 -30 3 -30 30 0 27 -3 30 -30 30 -27 0 -30 3 -30 30 0 25 -4 30 -25 30
-20 0 -25 5 -25 25 0 21 -5 25 -30 25 -27 0 -30 3 -30 30 0 27 -3 30 -30 30
-27 0 -30 3 -30 30 0 25 -4 30 -25 30 -20 0 -25 5 -25 25 0 21 -5 25 -30 25
-27 0 -30 3 -30 30 0 27 -3 30 -30 30 -27 0 -30 3 -30 30 0 25 -4 30 -25 30
-20 0 -25 5 -25 25 0 21 -5 25 -30 25 -27 0 -30 3 -30 30 0 27 -3 30 -30 30
-27 0 -30 3 -30 30 0 25 -4 30 -25 30 -20 0 -25 5 -25 25 0 21 -5 25 -30 25
-27 0 -30 3 -30 30 0 27 -3 30 -30 30 -27 0 -30 3 -30 30 0 25 -4 30 -25 30
-20 0 -25 5 -25 25 0 21 -5 25 -30 25 -27 0 -30 3 -30 30 0 27 -3 30 -30 30
-27 0 -30 3 -30 30 0 25 -4 30 -25 30 -20 0 -25 5 -25 25 0 21 -5 25 -30 25
-27 0 -30 3 -30 30 0 27 -3 30 -30 30 -27 0 -30 3 -30 30 0 25 -4 30 -25 30
-20 0 -25 5 -25 25 0 21 -5 25 -30 25 -27 0 -30 3 -30 30 0 27 -3 30 -30 30
-27 0 -30 3 -30 30 0 25 -4 30 -25 30 -20 0 -25 5 -25 25 0 21 -5 25 -30 25
-27 0 -30 3 -30 30 0 27 -3 30 -30 30 -27 0 -30 3 -30 30 0 27 -3 30 -30 30
-27 0 -30 3 -30 30 0 25 -4 30 -25 30 -20 0 -25 5 -25 25 0 21 -5 25 -30 25
-27 0 -30 3 -30 30 0 27 -3 30 -30 30 -27 0 -30 3 -30 30 0 25 -4 30 -25 30
-20 0 -25 5 -25 25 0 21 -5 25 -30 25 -27 0 -30 3 -30 30 0 27 -3 30 -30 30
-27 0 -30 3 -30 30 0 25 -4 30 -25 30 -20 0 -25 5 -25 25 0 21 -5 25 -30 25
-27 0 -30 3 -30 30 0 27 -3 30 -30 30 -27 0 -30 3 -30 30 0 25 -4 30 -25 30
-20 0 -25 5 -25 25 0 21 -5 25 -30 25 -27 0 -30 3 -30 30 0 27 -3 30 -30 30
-27 0 -30 3 -30 30 0 25 -4 30 -25 30 -20 0 -25 5 -25 25 0 21 -5 25 -30 25
-27 0 -30 3 -30 30 0 27 -3 30 -30 30 -27 0 -30 3 -30 30 0 25 -4 30 -25 30
l-25 0 0 -285z"/>
<path d="M12015 12049 c-132 -104 -321 -253 -420 -331 -99 -78 -186 -147 -193
-154 -7 -7 -90 -74 -185 -148 -281 -221 -412 -327 -415 -336 -9 -26 1030 -675
1160 -725 11 -4 63 32 165 112 188 151 509 406 633 503 52 41 97 77 100 80 3
4 70 57 150 120 80 62 216 170 302 239 l157 125 -129 67 c-293 152 -627 347
-924 538 -86 56 -158 101 -159 101 -1 0 -110 -86 -242 -191z"/>
<path d="M21320 10908 c-172 -53 -554 -146 -812 -197 -698 -137 -1367 -207
-2270 -237 l-198 -6 0 -42 0 -42 791 -755 c636 -606 797 -755 820 -757 59 -6
624 64 959 119 1121 185 2072 477 2884 886 190 96 190 96 161 109 -84 37 -125
55 -180 77 -83 34 -653 275 -690 292 -16 7 -86 37 -155 65 -244 102 -415 174
-930 392 -91 39 -189 79 -217 91 -29 11 -53 24 -53 28 0 12 -1 12 -110 -23z"/>
<path d="M15193 10842 c4 -7 -1502 -1208 -1558 -1243 -25 -16 -25 -16 102 -64
743 -277 1500 -479 2268 -605 181 -30 188 -31 208 -13 12 10 358 332 769 716
l748 698 0 68 0 68 -219 6 c-663 20 -1319 114 -1976 282 -137 35 -272 71 -298
79 -26 8 -46 12 -44 8z"/>
<path d="M17935 8469 c-16 -5 -47 -8 -67 -7 -29 2 -217 -70 -851 -327 l-813
-330 859 -3 c472 -1 1244 -1 1714 0 l855 3 -155 63 c-86 34 -456 184 -824 333
-367 149 -672 273 -678 274 -5 2 -23 -1 -40 -6z"/>
</g>
</svg>
